<svg width="20" height="20" viewBox="0 0 20 20" fill="none" xmlns="http://www.w3.org/2000/svg">
<path d="M9.99935 1.66699C8.35118 1.66699 6.74001 2.15573 5.3696 3.07141C3.99919 3.98709 2.93109 5.28858 2.30036 6.8113C1.66963 8.33401 1.5046 10.0096 1.82614 11.6261C2.14769 13.2426 2.94136 14.7274 4.1068 15.8929C5.27223 17.0583 6.75709 17.852 8.3736 18.1735C9.99011 18.4951 11.6657 18.3301 13.1884 17.6993C14.7111 17.0686 16.0126 16.0005 16.9283 14.6301C17.8439 13.2597 18.3327 11.6485 18.3327 10.0003C18.3327 8.90598 18.1171 7.82234 17.6983 6.8113C17.2796 5.80025 16.6657 4.88159 15.8919 4.10777C15.1181 3.33395 14.1994 2.72012 13.1884 2.30133C12.1773 1.88254 11.0937 1.66699 9.99935 1.66699ZM10.8327 14.167C10.8327 14.388 10.7449 14.6 10.5886 14.7562C10.4323 14.9125 10.2204 15.0003 9.99935 15.0003C9.77834 15.0003 9.56638 14.9125 9.4101 14.7562C9.25382 14.6 9.16602 14.388 9.16602 14.167V9.16699C9.16602 8.94598 9.25382 8.73402 9.4101 8.57774C9.56638 8.42146 9.77834 8.33366 9.99935 8.33366C10.2204 8.33366 10.4323 8.42146 10.5886 8.57774C10.7449 8.73402 10.8327 8.94598 10.8327 9.16699V14.167ZM9.99935 6.66699C9.75213 6.66699 9.51045 6.59368 9.30489 6.45633C9.09933 6.31898 8.93911 6.12375 8.8445 5.89535C8.74989 5.66694 8.72514 5.41561 8.77337 5.17313C8.8216 4.93065 8.94065 4.70792 9.11547 4.53311C9.29028 4.35829 9.51301 4.23924 9.75549 4.19101C9.99797 4.14278 10.2493 4.16753 10.4777 4.26214C10.7061 4.35675 10.9013 4.51697 11.0387 4.72253C11.176 4.92809 11.2494 5.16977 11.2494 5.41699C11.2494 5.74851 11.1177 6.06646 10.8832 6.30088C10.6488 6.5353 10.3309 6.66699 9.99935 6.66699Z" fill="white"/>
</svg>
