<svg width="14" height="18" viewBox="0 0 14 18" fill="none" xmlns="http://www.w3.org/2000/svg">
<path d="M7.00016 0.666992C3.3335 0.666992 0.333496 3.66699 0.333496 7.33366C0.333496 11.8337 6.16683 16.917 6.41683 17.167C6.5835 17.2503 6.8335 17.3337 7.00016 17.3337C7.16683 17.3337 7.41683 17.2503 7.5835 17.167C7.8335 16.917 13.6668 11.8337 13.6668 7.33366C13.6668 3.66699 10.6668 0.666992 7.00016 0.666992ZM7.00016 15.417C5.25016 13.7503 2.00016 10.167 2.00016 7.33366C2.00016 4.58366 4.25016 2.33366 7.00016 2.33366C9.75016 2.33366 12.0002 4.58366 12.0002 7.33366C12.0002 10.0837 8.75016 13.7503 7.00016 15.417ZM7.00016 4.00033C5.16683 4.00033 3.66683 5.50033 3.66683 7.33366C3.66683 9.16699 5.16683 10.667 7.00016 10.667C8.8335 10.667 10.3335 9.16699 10.3335 7.33366C10.3335 5.50033 8.8335 4.00033 7.00016 4.00033ZM7.00016 9.00033C6.0835 9.00033 5.3335 8.25033 5.3335 7.33366C5.3335 6.41699 6.0835 5.66699 7.00016 5.66699C7.91683 5.66699 8.66683 6.41699 8.66683 7.33366C8.66683 8.25033 7.91683 9.00033 7.00016 9.00033Z" fill="#0D0D0D"/>
</svg>
