<svg width="16" height="16" viewBox="0 0 16 16" fill="none" xmlns="http://www.w3.org/2000/svg">
<path fill-rule="evenodd" clip-rule="evenodd" d="M8 0C8.36819 0 8.66667 0.298477 8.66667 0.666667V1.36625C11.8163 1.67896 14.321 4.18372 14.6337 7.33333H15.3333C15.7015 7.33333 16 7.63181 16 8C16 8.36819 15.7015 8.66667 15.3333 8.66667H14.6337C14.321 11.8163 11.8163 14.321 8.66667 14.6337V15.3333C8.66667 15.7015 8.36819 16 8 16C7.63181 16 7.33333 15.7015 7.33333 15.3333V14.6337C4.18372 14.321 1.67896 11.8163 1.36625 8.66667H0.666667C0.298477 8.66667 0 8.36819 0 8C0 7.63181 0.298477 7.33333 0.666667 7.33333H1.36625C1.67896 4.18372 4.18372 1.67896 7.33333 1.36625V0.666667C7.33333 0.298477 7.63181 0 8 0ZM8.66667 13.2921V12.6667C8.66667 12.2985 8.36819 12 8 12C7.63181 12 7.33333 12.2985 7.33333 12.6667V13.2921C4.92086 12.9912 3.00876 11.0791 2.70793 8.66667H3.33333C3.70152 8.66667 4 8.36819 4 8C4 7.63181 3.70152 7.33333 3.33333 7.33333H2.70793C3.00876 4.92086 4.92086 3.00876 7.33333 2.70793V3.33333C7.33333 3.70152 7.63181 4 8 4C8.36819 4 8.66667 3.70152 8.66667 3.33333V2.70793C11.0791 3.00876 12.9912 4.92086 13.2921 7.33333H12.6667C12.2985 7.33333 12 7.63181 12 8C12 8.36819 12.2985 8.66667 12.6667 8.66667H13.2921C12.9912 11.0791 11.0791 12.9912 8.66667 13.2921ZM8 6C7.63181 6 7.33333 6.29848 7.33333 6.66667C7.33333 7.03486 7.63181 7.33333 8 7.33333C8.36819 7.33333 8.66667 7.03486 8.66667 6.66667C8.66667 6.29848 8.36819 6 8 6ZM6 6.66667C6 5.5621 6.89543 4.66667 8 4.66667C9.10457 4.66667 10 5.5621 10 6.66667C10 7.21575 9.77873 7.71315 9.4205 8.07456C9.59894 8.10479 9.7724 8.14725 9.93632 8.20685C10.2555 8.3229 10.555 8.50716 10.8022 8.7942C11.0465 9.07791 11.2113 9.42903 11.3136 9.83836C11.4029 10.1956 11.1857 10.5575 10.8285 10.6468C10.4713 10.7361 10.1094 10.5189 10.0201 10.1617C9.95573 9.9044 9.87047 9.75552 9.79185 9.66423C9.71611 9.57627 9.61986 9.51053 9.48066 9.45991C9.15662 9.34208 8.70735 9.33338 8.00016 9.33338C7.29296 9.33338 6.84369 9.34208 6.51965 9.45991C6.38045 9.51053 6.28421 9.57627 6.20846 9.66423C6.12985 9.75552 6.04459 9.9044 5.98025 10.1617C5.89095 10.5189 5.529 10.7361 5.1718 10.6468C4.8146 10.5575 4.59743 10.1956 4.68673 9.83836C4.78906 9.42903 4.9538 9.07791 5.1981 8.7942C5.44527 8.50716 5.74486 8.3229 6.064 8.20685C6.22783 8.14728 6.4012 8.10484 6.57954 8.07461C6.22128 7.71319 6 7.21577 6 6.66667Z" fill="white"/>
</svg>
