<svg width="15" height="14" viewBox="0 0 15 14" fill="none" xmlns="http://www.w3.org/2000/svg">
<path d="M13.7558 10.8342C13.9115 10.9906 14.0283 11.1814 14.0966 11.3912C14.1649 11.601 14.1829 11.824 14.149 12.0421C14.1151 12.2601 14.0303 12.4671 13.9016 12.6463C13.7728 12.8256 13.6036 12.9719 13.4078 13.0736C12.2885 13.6718 10.9844 13.8247 9.75708 13.5016C6.49975 12.6816 1.81775 7.99958 0.997751 4.74225C0.674634 3.51495 0.827524 2.21086 1.42575 1.09158C1.52742 0.895716 1.67378 0.726546 1.85298 0.597769C2.03219 0.468991 2.23921 0.384227 2.45727 0.35034C2.67533 0.316453 2.8983 0.334395 3.10814 0.402713C3.31798 0.471032 3.50877 0.587806 3.66508 0.743581L5.05509 2.13291C5.25554 2.33135 5.39117 2.58586 5.44413 2.8629C5.49709 3.13995 5.46488 3.42653 5.35175 3.68491C5.22795 3.97481 5.05217 4.23961 4.83309 4.46625C3.24375 6.05558 8.44442 11.2562 10.0331 9.66625C10.2598 9.44638 10.5248 9.26991 10.8151 9.14558C11.0734 9.03226 11.3601 8.99996 11.6371 9.05292C11.9142 9.10589 12.1687 9.24164 12.3671 9.44225L13.7558 10.8342ZM6.54708 0.846914C6.46595 0.883155 6.39287 0.935251 6.33216 1.00014C6.27144 1.06503 6.22432 1.1414 6.19354 1.22477C6.16277 1.30813 6.14898 1.39681 6.15297 1.48558C6.15696 1.57436 6.17866 1.66144 6.2168 1.7417C6.25493 1.82197 6.30873 1.8938 6.37502 1.95298C6.44132 2.01215 6.51877 2.05748 6.60284 2.08629C6.6869 2.11509 6.77588 2.12681 6.86453 2.12073C6.95319 2.11466 7.03974 2.09092 7.11908 2.05091C7.86495 1.69663 8.70219 1.58186 9.51588 1.72235C10.3296 1.86285 11.0798 2.25172 11.6637 2.8356C12.2476 3.41948 12.6365 4.16976 12.777 4.98345C12.9175 5.79715 12.8027 6.63438 12.4484 7.38025C12.3726 7.54 12.3633 7.72333 12.4226 7.88993C12.4819 8.05652 12.605 8.19273 12.7648 8.26858C12.9245 8.34443 13.1078 8.35372 13.2744 8.29439C13.441 8.23507 13.5772 8.112 13.6531 7.95225C14.1254 6.95775 14.2783 5.84147 14.0909 4.7566C13.9035 3.67172 13.385 2.67142 12.6065 1.89298C11.8279 1.11453 10.8276 0.596092 9.7427 0.408801C8.65781 0.22151 7.54154 0.374548 6.54708 0.846914ZM9.77642 7.55158C9.90144 7.67656 10.071 7.74677 10.2478 7.74677C10.4245 7.74677 10.5941 7.67656 10.7191 7.55158C10.9712 7.30497 11.172 7.01078 11.3096 6.68606C11.4473 6.36134 11.5192 6.01253 11.5211 5.65983C11.5231 5.30713 11.455 4.95755 11.321 4.63133C11.1869 4.30511 10.9894 4.00874 10.74 3.75936C10.4905 3.50998 10.1941 3.31256 9.86789 3.17853C9.54165 3.0445 9.19206 2.97652 8.83936 2.97852C8.48666 2.98053 8.13787 3.05248 7.81317 3.19021C7.48847 3.32794 7.19432 3.52872 6.94775 3.78091C6.82631 3.90665 6.75912 4.07505 6.76064 4.24985C6.76215 4.42465 6.83227 4.59185 6.95587 4.71546C7.07948 4.83907 7.24669 4.90918 7.42148 4.9107C7.59628 4.91222 7.76468 4.84502 7.89042 4.72358C8.14443 4.48098 8.48217 4.34561 8.83342 4.34561C9.18467 4.34561 9.52241 4.48098 9.77642 4.72358C10.0264 4.97362 10.1668 5.3127 10.1668 5.66625C10.1668 6.0198 10.0264 6.35888 9.77642 6.60891C9.65144 6.73393 9.58123 6.90347 9.58123 7.08025C9.58123 7.25702 9.65144 7.42656 9.77642 7.55158Z" fill="#161616"/>
</svg>
