<svg width="36" height="36" viewBox="0 0 36 36" fill="none" xmlns="http://www.w3.org/2000/svg">
<rect width="36" height="36" rx="18" transform="matrix(-1 0 0 1 36 0)" fill="#EBEBEB"/>
<path d="M25.8202 22.7935C26.0149 22.9889 26.1609 23.2274 26.2463 23.4897C26.3317 23.752 26.3541 24.0307 26.3117 24.3033C26.2694 24.5759 26.1634 24.8347 26.0024 25.0587C25.8415 25.2827 25.63 25.4656 25.3852 25.5927C23.9861 26.3405 22.356 26.5316 20.8218 26.1277C16.7502 25.1027 10.8977 19.2502 9.87268 15.1785C9.46878 13.6444 9.65989 12.0143 10.4077 10.6152C10.5348 10.3704 10.7177 10.1589 10.9417 9.99794C11.1657 9.83697 11.4245 9.73102 11.6971 9.68866C11.9696 9.6463 12.2484 9.66873 12.5107 9.75412C12.773 9.83952 13.0115 9.98549 13.2068 10.1802L14.9443 11.9169C15.1949 12.1649 15.3645 12.4831 15.4307 12.8294C15.4968 13.1757 15.4566 13.5339 15.3152 13.8569C15.1604 14.2192 14.9407 14.5502 14.6668 14.8335C12.6802 16.8202 19.181 23.321 21.1668 21.3335C21.4502 21.0587 21.7815 20.8381 22.1443 20.6827C22.4673 20.5411 22.8256 20.5007 23.1719 20.5669C23.5183 20.6331 23.8364 20.8028 24.0843 21.0535L25.8202 22.7935ZM16.8093 10.3094C16.7079 10.3547 16.6166 10.4198 16.5407 10.5009C16.4648 10.582 16.4059 10.6775 16.3674 10.7817C16.329 10.8859 16.3117 10.9967 16.3167 11.1077C16.3217 11.2187 16.3488 11.3275 16.3965 11.4279C16.4442 11.5282 16.5114 11.618 16.5943 11.692C16.6771 11.7659 16.774 11.8226 16.879 11.8586C16.9841 11.8946 17.0953 11.9092 17.2062 11.9016C17.317 11.8941 17.4252 11.8644 17.5243 11.8144C18.4567 11.3715 19.5032 11.2281 20.5203 11.4037C21.5375 11.5793 22.4753 12.0654 23.2052 12.7952C23.935 13.5251 24.4211 14.4629 24.5967 15.48C24.7723 16.4972 24.6289 17.5437 24.186 18.476C24.0912 18.6757 24.0796 18.9049 24.1537 19.1131C24.2279 19.3214 24.3817 19.4916 24.5814 19.5865C24.7811 19.6813 25.0103 19.6929 25.2185 19.6187C25.4268 19.5446 25.597 19.3907 25.6918 19.191C26.2822 17.9479 26.4734 16.5526 26.2391 15.1965C26.0049 13.8404 25.3567 12.59 24.3836 11.617C23.4104 10.6439 22.16 9.99585 20.8039 9.76173C19.4477 9.52762 18.0524 9.71892 16.8093 10.3094ZM20.846 18.6902C21.0023 18.8464 21.2142 18.9342 21.4352 18.9342C21.6561 18.9342 21.8681 18.8464 22.0243 18.6902C22.3395 18.3819 22.5904 18.0142 22.7625 17.6083C22.9346 17.2024 23.0245 16.7664 23.0269 16.3255C23.0293 15.8846 22.9443 15.4477 22.7767 15.0399C22.6091 14.6321 22.3622 14.2617 22.0505 13.9499C21.7387 13.6382 21.3682 13.3914 20.9604 13.2239C20.5525 13.0564 20.1156 12.9714 19.6747 12.9739C19.2338 12.9764 18.7978 13.0663 18.392 13.2385C17.9861 13.4107 17.6184 13.6616 17.3102 13.9769C17.1584 14.134 17.0744 14.3445 17.0763 14.563C17.0782 14.7815 17.1658 14.9906 17.3203 15.1451C17.4748 15.2996 17.6838 15.3872 17.9023 15.3891C18.1208 15.391 18.3313 15.307 18.4885 15.1552C18.806 14.852 19.2282 14.6827 19.6673 14.6827C20.1063 14.6827 20.5285 14.852 20.846 15.1552C21.1585 15.4678 21.334 15.8916 21.334 16.3335C21.334 16.7755 21.1585 17.1993 20.846 17.5119C20.6898 17.6681 20.602 17.8801 20.602 18.101C20.602 18.322 20.6898 18.5339 20.846 18.6902Z" fill="#161616"/>
</svg>
