<svg width="20" height="20" viewBox="0 0 20 20" fill="none" xmlns="http://www.w3.org/2000/svg">
<path d="M3.19416 3.33317H6.93578L8.14179 6.3482L6.20439 7.6398C5.97256 7.79435 5.83331 8.05454 5.83331 8.33317C5.83542 8.4112 5.83331 8.334 5.83331 8.334L5.83331 8.33488L5.83331 8.33674L5.83334 8.34095L5.83346 8.35123C5.83359 8.35891 5.8338 8.36824 5.83415 8.37916C5.83485 8.40101 5.83613 8.42925 5.83841 8.46347C5.84297 8.53189 5.85157 8.62437 5.86772 8.73748C5.90002 8.96356 5.96271 9.27326 6.08441 9.63836C6.32877 10.3714 6.80892 11.3206 7.74405 12.2558C8.67919 13.1909 9.62836 13.671 10.3615 13.9154C10.7265 14.0371 11.0363 14.0998 11.2623 14.1321C11.3754 14.1482 11.4679 14.1568 11.5363 14.1614C11.5706 14.1637 11.5988 14.165 11.6206 14.1657C11.6316 14.166 11.6409 14.1662 11.6486 14.1663L11.6589 14.1665L11.6631 14.1665L11.6649 14.1665L11.6658 14.1665C11.6658 14.1665 11.7588 14.1614 11.6666 14.1665C11.9823 14.1665 12.2708 13.9882 12.412 13.7058L12.9701 12.5897L16.6666 13.2058V16.8057C14.9074 17.0601 10.1561 17.3108 6.42256 13.5772C2.68898 9.84367 2.93974 5.09242 3.19416 3.33317ZM7.56135 8.73824L9.06629 7.73495C9.72207 7.29776 9.98196 6.46098 9.68925 5.72921L8.48324 2.71419C8.23014 2.08142 7.61729 1.6665 6.93578 1.6665H3.15062C2.39353 1.6665 1.68088 2.19247 1.55659 3.01392C1.27384 4.88276 0.888963 10.4007 5.24405 14.7558C9.59914 19.1108 15.1171 18.726 16.9859 18.4432C17.8073 18.3189 18.3333 17.6063 18.3333 16.8492V13.2058C18.3333 12.391 17.7443 11.6957 16.9406 11.5618L13.2441 10.9457C12.5224 10.8254 11.8066 11.1899 11.4794 11.8443L11.1906 12.4218C11.0999 12.3995 10.9986 12.371 10.8885 12.3343C10.3716 12.162 9.65409 11.8088 8.92256 11.0772C8.19103 10.3457 7.83785 9.62823 7.66554 9.11131C7.61898 8.97163 7.58547 8.84604 7.56135 8.73824Z" fill="#0D0D0D"/>
</svg>
