<svg width="20" height="20" viewBox="0 0 20 20" fill="none" xmlns="http://www.w3.org/2000/svg">
<g clip-path="url(#clip0)">
<path d="M3.75 10.8262H0.886719C0.855469 11.1152 0.832031 11.3965 0.832031 11.6582H4.92969C4.75781 11.1777 4.29297 10.8262 3.75 10.8262Z" fill="white"/>
<path d="M19.1094 10.8301H16.25C15.707 10.8262 15.2422 11.1778 15.0703 11.6621H19.1641C19.1641 11.4004 19.1406 11.1153 19.1094 10.8301Z" fill="white"/>
<path d="M7.57422 10.8262L7.85156 12.4941H12.1484L12.4258 10.8262H7.57422Z" fill="white"/>
<path d="M20 6.66211C20 5.57617 19.4102 4.92773 18.4219 4.92773C18.0898 4.92773 17.8242 5.00195 17.7969 5.01367C17.6875 5.04883 17.5977 5.12305 17.543 5.22461L17.1445 6.01758C16.4297 4.29492 15.2148 2.55273 14.3516 2.12305C13.7812 1.83789 11.6484 1.66211 10 1.66211C8.35156 1.66211 6.21484 1.83789 5.64844 2.12305C4.78516 2.55273 3.56641 4.29883 2.85547 6.02148L2.45703 5.22852C2.40625 5.12695 2.31641 5.04883 2.20312 5.01758C2.17578 5.00977 1.91406 4.93164 1.57812 4.93164C0.589844 4.93164 0 5.58008 0 6.66601C0 7.38086 1.05078 7.7207 1.80469 7.87305C1.4375 8.52539 1.17969 9.26758 1.02344 10.002H3.75C4.89844 10.002 5.83203 10.9355 5.83203 12.084C5.83203 12.3145 5.64453 12.502 5.41406 12.502H0.859375C0.917969 13.5059 1.10156 14.8652 1.66797 15.5762V17.0879C1.66797 17.7754 2.23047 18.3379 2.91797 18.3379H3.75C4.4375 18.3379 5 17.7754 5 17.0879V16.3105C5.94922 16.4277 8.14062 16.6699 10 16.6699C11.8594 16.6699 14.0508 16.4277 15 16.3105V17.0879C15 17.7754 15.5625 18.3379 16.25 18.3379H17.082C17.7695 18.3379 18.332 17.7754 18.332 17.0879V15.5762C18.8984 14.8652 19.082 13.5059 19.1406 12.502H14.582C14.3516 12.502 14.1641 12.3145 14.1641 12.084C14.1641 10.9355 15.0977 10.002 16.2461 10.002H18.9727C18.8164 9.27148 18.5586 8.52539 18.1914 7.87305C18.9492 7.71289 20 7.37305 20 6.66211ZM13.3281 10.4785L12.9102 12.9785C12.875 13.1777 12.7031 13.3262 12.5 13.3262H7.5C7.29688 13.3262 7.12109 13.1777 7.08984 12.9785L6.67188 10.4785C6.65234 10.3574 6.6875 10.2324 6.76562 10.1426C6.84375 10.0488 6.96094 9.99414 7.08203 9.99414H12.9141C13.0352 9.99414 13.1523 10.0488 13.2305 10.1426C13.3125 10.2363 13.3477 10.3574 13.3281 10.4785ZM10 7.07617C8.59375 7.07617 4.87109 6.80664 3.48047 6.70117C4.14453 4.87695 5.42188 3.16602 6.01953 2.86523C6.31641 2.7168 8.05469 2.49414 10 2.49414C11.9453 2.49414 13.6836 2.7168 13.9805 2.86523C14.5781 3.16602 15.8555 4.87695 16.5195 6.70117C15.1328 6.80664 11.4062 7.07617 10 7.07617Z" fill="white"/>
</g>
<defs>
<clipPath id="clip0">
<rect width="20" height="20" fill="white"/>
</clipPath>
</defs>
</svg>
