<svg width="18" height="18" viewBox="0 0 18 18" fill="none" xmlns="http://www.w3.org/2000/svg">
<path d="M9.00033 2.33366C5.31843 2.33366 2.33366 5.31843 2.33366 9.00033C2.33366 12.6822 5.31843 15.667 9.00033 15.667C12.6822 15.667 15.667 12.6822 15.667 9.00033C15.667 5.31843 12.6822 2.33366 9.00033 2.33366ZM0.666992 9.00033C0.666992 4.39795 4.39795 0.666992 9.00033 0.666992C13.6027 0.666992 17.3337 4.39795 17.3337 9.00033C17.3337 13.6027 13.6027 17.3337 9.00033 17.3337C4.39795 17.3337 0.666992 13.6027 0.666992 9.00033Z" fill="#0D0D0D"/>
<path d="M9.00033 7.33366C9.46056 7.33366 9.83366 7.70676 9.83366 8.16699V13.167C9.83366 13.6272 9.46056 14.0003 9.00033 14.0003C8.54009 14.0003 8.16699 13.6272 8.16699 13.167V8.16699C8.16699 7.70676 8.54009 7.33366 9.00033 7.33366Z" fill="#0D0D0D"/>
<path d="M10.2503 5.25033C10.2503 5.94068 9.69068 6.50033 9.00033 6.50033C8.30997 6.50033 7.75033 5.94068 7.75033 5.25033C7.75033 4.55997 8.30997 4.00033 9.00033 4.00033C9.69068 4.00033 10.2503 4.55997 10.2503 5.25033Z" fill="#0D0D0D"/>
</svg>
