<svg width="14" height="14" viewBox="0 0 14 14" fill="none" xmlns="http://www.w3.org/2000/svg">
<path d="M7.00017 0.333496C5.68162 0.333496 4.39269 0.724489 3.29636 1.45703C2.20004 2.18957 1.34555 3.23077 0.840969 4.44894C0.336385 5.66711 0.204362 7.00756 0.461597 8.30077C0.718832 9.59397 1.35377 10.7819 2.28612 11.7142C3.21847 12.6466 4.40636 13.2815 5.69956 13.5387C6.99277 13.796 8.33321 13.6639 9.55139 13.1594C10.7696 12.6548 11.8108 11.8003 12.5433 10.704C13.2758 9.60764 13.6668 8.31871 13.6668 7.00016C13.6668 6.12468 13.4944 5.25778 13.1594 4.44894C12.8243 3.6401 12.3333 2.90517 11.7142 2.28612C11.0952 1.66706 10.3602 1.176 9.55139 0.840966C8.74255 0.505935 7.87564 0.333496 7.00017 0.333496ZM9.4715 8.52883C9.53517 8.59033 9.58596 8.66389 9.6209 8.74523C9.65584 8.82656 9.67423 8.91404 9.675 9.00256C9.67577 9.09108 9.6589 9.17887 9.62538 9.2608C9.59186 9.34273 9.54236 9.41716 9.47976 9.47976C9.41717 9.54235 9.34273 9.59186 9.2608 9.62538C9.17887 9.6589 9.09108 9.67577 9.00256 9.675C8.91405 9.67423 8.82656 9.65584 8.74523 9.6209C8.66389 9.58596 8.59033 9.53517 8.52883 9.4715L7.00017 7.94283L5.4715 9.4715C5.34576 9.59293 5.17736 9.66013 5.00256 9.65861C4.82777 9.65709 4.66056 9.58698 4.53695 9.46338C4.41335 9.33977 4.34324 9.17256 4.34172 8.99776C4.3402 8.82297 4.40739 8.65456 4.52883 8.52883L6.0575 7.00016L4.52883 5.4715C4.40739 5.34576 4.3402 5.17736 4.34172 5.00256C4.34324 4.82776 4.41335 4.66056 4.53695 4.53695C4.66056 4.41335 4.82777 4.34323 5.00256 4.34171C5.17736 4.34019 5.34576 4.40739 5.4715 4.52883L7.00017 6.0575L8.52883 4.52883C8.65457 4.40739 8.82297 4.34019 8.99777 4.34171C9.17256 4.34323 9.33977 4.41335 9.46338 4.53695C9.58698 4.66056 9.6571 4.82776 9.65861 5.00256C9.66013 5.17736 9.59294 5.34576 9.4715 5.4715L7.94283 7.00016L9.4715 8.52883Z" fill="#6F6F6F"/>
</svg>
