<svg width="20" height="20" viewBox="0 0 20 20" fill="none" xmlns="http://www.w3.org/2000/svg">
<path d="M3.33333 17.5H16.6667C16.8877 17.5 17.0996 17.4122 17.2559 17.2559C17.4122 17.0996 17.5 16.8877 17.5 16.6667V3.33333C17.5 3.11232 17.4122 2.90036 17.2559 2.74408C17.0996 2.5878 16.8877 2.5 16.6667 2.5H3.33333C3.11232 2.5 2.90036 2.5878 2.74408 2.74408C2.5878 2.90036 2.5 3.11232 2.5 3.33333V16.6667C2.5 16.8877 2.5878 17.0996 2.74408 17.2559C2.90036 17.4122 3.11232 17.5 3.33333 17.5ZM10 5.83333C10.4945 5.83333 10.9778 5.97996 11.3889 6.25466C11.8 6.52936 12.1205 6.91981 12.3097 7.37662C12.4989 7.83344 12.5484 8.33611 12.452 8.82106C12.3555 9.30601 12.1174 9.75147 11.7678 10.1011C11.4181 10.4507 10.9727 10.6888 10.4877 10.7853C10.0028 10.8818 9.50011 10.8323 9.04329 10.643C8.58648 10.4538 8.19603 10.1334 7.92133 9.72226C7.64662 9.31114 7.5 8.82779 7.5 8.33333C7.5 7.67029 7.76339 7.03441 8.23223 6.56557C8.70107 6.09673 9.33696 5.83333 10 5.83333ZM10 13.3333C10.9986 13.3326 11.9846 13.557 12.8846 13.9899C13.7846 14.4227 14.5754 15.0528 15.1983 15.8333H4.80167C5.4246 15.0528 6.21545 14.4227 7.11542 13.9899C8.0154 13.557 9.00136 13.3326 10 13.3333Z" fill="white"/>
</svg>
