<svg width="32" height="32" viewBox="0 0 32 32" fill="none" xmlns="http://www.w3.org/2000/svg">
<rect width="32" height="32" rx="16" transform="matrix(-1 0 0 1 32 0)" fill="#ECECEC"/>
<path d="M9.3335 10.6663C9.3335 9.92996 9.93045 9.33301 10.6668 9.33301H17.3335C18.0699 9.33301 18.6668 9.92996 18.6668 10.6663V13.333H21.3335C22.0699 13.333 22.6668 13.93 22.6668 14.6663V21.333C22.6668 22.0694 22.0699 22.6663 21.3335 22.6663H14.6668C13.9304 22.6663 13.3335 22.0694 13.3335 21.333V18.6663H10.6668C9.93045 18.6663 9.3335 18.0694 9.3335 17.333V10.6663ZM14.6668 18.6663V21.333H21.3335V14.6663H18.6668V17.333C18.6668 18.0694 18.0699 18.6663 17.3335 18.6663H14.6668ZM17.3335 17.333V10.6663L10.6668 10.6663V17.333H17.3335Z" fill="#474747"/>
</svg>
