<svg width="18" height="18" viewBox="0 0 18 18" fill="none" xmlns="http://www.w3.org/2000/svg">
<path d="M4.83366 2.33366C4.83366 1.41318 5.57985 0.666992 6.50033 0.666992H11.5003C12.4208 0.666992 13.167 1.41318 13.167 2.33366V4.00033H14.8251C14.8302 4.00028 14.8354 4.00028 14.8405 4.00033H16.5003C16.9606 4.00033 17.3337 4.37342 17.3337 4.83366C17.3337 5.2939 16.9606 5.66699 16.5003 5.66699H15.6096L14.8868 15.7857C14.8245 16.6579 14.0988 17.3337 13.2244 17.3337H4.77626C3.90186 17.3337 3.17613 16.6579 3.11383 15.7857L2.39106 5.66699H1.50033C1.04009 5.66699 0.666992 5.2939 0.666992 4.83366C0.666992 4.37342 1.04009 4.00033 1.50033 4.00033H3.16011C3.16528 4.00028 3.17044 4.00028 3.17559 4.00033H4.83366V2.33366ZM6.50033 4.00033H11.5003V2.33366H6.50033V4.00033ZM4.06197 5.66699L4.77626 15.667H13.2244L13.9387 5.66699H4.06197ZM7.33366 7.33366C7.7939 7.33366 8.16699 7.70676 8.16699 8.16699V13.167C8.16699 13.6272 7.7939 14.0003 7.33366 14.0003C6.87342 14.0003 6.50033 13.6272 6.50033 13.167V8.16699C6.50033 7.70676 6.87342 7.33366 7.33366 7.33366ZM10.667 7.33366C11.1272 7.33366 11.5003 7.70676 11.5003 8.16699V13.167C11.5003 13.6272 11.1272 14.0003 10.667 14.0003C10.2068 14.0003 9.83366 13.6272 9.83366 13.167V8.16699C9.83366 7.70676 10.2068 7.33366 10.667 7.33366Z" fill="#E7E7E7"/>
</svg>
