<svg width="20" height="20" viewBox="0 0 20 20" fill="none" xmlns="http://www.w3.org/2000/svg">
<g clip-path="url(#clip0)">
<path d="M1 1V3.99883H19V1H1ZM11.8738 2.87383H2.87383V2.125H11.8738V2.87383ZM14.5 2.87383H13.7512V2.125H14.5V2.87383ZM16.0012 2.87383H15.2523V2.125H16.0012V2.87383ZM17.4988 2.87383H16.75V2.125H17.4988V2.87383Z" fill="white"/>
<path d="M1 19.0004H19V4.74805H1V19.0004ZM14.1238 14.1242C14.1238 14.1242 11.4977 13.748 10 15.998C8.49883 13.748 5.87617 14.1242 5.87617 14.1242V11.2625L10 13.066L14.1238 11.2625V14.1242ZM10 6.99805L16.0012 9.62422V15.7273C16.2227 15.8574 16.3773 16.0965 16.3773 16.3742V16.7504C16.3773 17.1652 16.0398 17.4992 15.6285 17.4992C15.2137 17.4992 14.8797 17.1617 14.8797 16.7504V16.3742C14.8797 16.0965 15.0309 15.8574 15.2559 15.7273V9.95117L10 12.2504L3.99883 9.62422L10 6.99805Z" fill="white"/>
</g>
<defs>
<clipPath id="clip0">
<rect width="18" height="18" fill="white" transform="translate(1 1)"/>
</clipPath>
</defs>
</svg>
