<svg width="12" height="12" viewBox="0 0 12 12" fill="none" xmlns="http://www.w3.org/2000/svg">
<mask id="path-1-inside-1_20850:5528" fill="white">
<path d="M6.00042 11.7137C9.15633 11.7137 11.7147 9.15536 11.7147 5.99944C11.7147 2.84353 9.15633 0.285156 6.00042 0.285156C2.84451 0.285156 0.286133 2.84353 0.286133 5.99944C0.286133 9.15536 2.84451 11.7137 6.00042 11.7137Z"/>
<path d="M6.57185 8.28516C6.57185 8.60075 6.31601 8.85659 6.00042 8.85659C5.68483 8.85659 5.42899 8.60075 5.42899 8.28516C5.42899 7.96957 5.68483 7.71373 6.00042 7.71373C6.31601 7.71373 6.57185 7.96957 6.57185 8.28516Z"/>
</mask>
<path d="M6.50042 3.71373C6.50042 3.43759 6.27656 3.21373 6.00042 3.21373C5.72428 3.21373 5.50042 3.43759 5.50042 3.71373H6.50042ZM5.50042 5.99944C5.50042 6.27558 5.72428 6.49944 6.00042 6.49944C6.27656 6.49944 6.50042 6.27558 6.50042 5.99944H5.50042ZM5.50042 3.71373V5.99944H6.50042V3.71373H5.50042ZM10.7147 5.99944C10.7147 8.60307 8.60405 10.7137 6.00042 10.7137V12.7137C9.70862 12.7137 12.7147 9.70764 12.7147 5.99944H10.7147ZM6.00042 10.7137C3.39679 10.7137 1.28613 8.60307 1.28613 5.99944H-0.713867C-0.713867 9.70764 2.29222 12.7137 6.00042 12.7137V10.7137ZM1.28613 5.99944C1.28613 3.39581 3.39679 1.28516 6.00042 1.28516V-0.714844C2.29222 -0.714844 -0.713867 2.29124 -0.713867 5.99944H1.28613ZM6.00042 1.28516C8.60405 1.28516 10.7147 3.39581 10.7147 5.99944H12.7147C12.7147 2.29124 9.70862 -0.714844 6.00042 -0.714844V1.28516ZM5.57185 8.28516C5.57185 8.04846 5.76373 7.85659 6.00042 7.85659V9.85659C6.86829 9.85659 7.57185 9.15303 7.57185 8.28516H5.57185ZM6.00042 7.85659C6.23711 7.85659 6.42899 8.04846 6.42899 8.28516H4.42899C4.42899 9.15303 5.13254 9.85659 6.00042 9.85659V7.85659ZM6.42899 8.28516C6.42899 8.52185 6.23711 8.71373 6.00042 8.71373V6.71373C5.13254 6.71373 4.42899 7.41728 4.42899 8.28516H6.42899ZM6.00042 8.71373C5.76373 8.71373 5.57185 8.52185 5.57185 8.28516H7.57185C7.57185 7.41728 6.86829 6.71373 6.00042 6.71373V8.71373Z" fill="#CA0111" mask="url(#path-1-inside-1_20850:5528)"/>
</svg>
