<svg width="14" height="16" fill="none" xmlns="http://www.w3.org/2000/svg">
    <path
        d="M0 14.5V6h14v8.5c0 .417-.146.77-.438 1.063A1.446 1.446 0 0112.5 16h-11c-.417 0-.77-.146-1.063-.438A1.447 1.447 0 010 14.5zm10-6.125v1.25c0 .25.125.375.375.375h1.25c.25 0 .375-.125.375-.375v-1.25c0-.25-.125-.375-.375-.375h-1.25c-.25 0-.375.125-.375.375zm0 4v1.25c0 .25.125.375.375.375h1.25c.25 0 .375-.125.375-.375v-1.25c0-.25-.125-.375-.375-.375h-1.25c-.25 0-.375.125-.375.375zm-4-4v1.25c0 .25.125.375.375.375h1.25c.25 0 .375-.125.375-.375v-1.25C8 8.125 7.875 8 7.625 8h-1.25C6.125 8 6 8.125 6 8.375zm0 4v1.25c0 .25.125.375.375.375h1.25c.25 0 .375-.125.375-.375v-1.25c0-.25-.125-.375-.375-.375h-1.25c-.25 0-.375.125-.375.375zm-4-4v1.25c0 .25.125.375.375.375h1.25c.25 0 .375-.125.375-.375v-1.25C4 8.125 3.875 8 3.625 8h-1.25C2.125 8 2 8.125 2 8.375zm0 4v1.25c0 .25.125.375.375.375h1.25c.25 0 .375-.125.375-.375v-1.25c0-.25-.125-.375-.375-.375h-1.25c-.25 0-.375.125-.375.375zM12.5 2c.417 0 .77.146 1.063.438.291.291.437.645.437 1.062V5H0V3.5c0-.417.146-.77.438-1.063A1.447 1.447 0 011.5 2H3V.5c0-.146.042-.26.125-.344A.511.511 0 013.5 0h1c.146 0 .26.052.344.156A.416.416 0 015 .5V2h4V.5c0-.146.042-.26.125-.344A.511.511 0 019.5 0h1c.146 0 .26.052.344.156A.416.416 0 0111 .5V2h1.5z"
        fill="#C7C7C7" fill-opacity=".74" />
</svg>