<svg width="18" height="14" viewBox="0 0 18 14" fill="none" xmlns="http://www.w3.org/2000/svg">
<path d="M10.25 5.75C10.25 6.41304 9.98661 7.04893 9.51777 7.51777C9.04893 7.98661 8.41304 8.25 7.75 8.25C7.08696 8.25 6.45107 7.98661 5.98223 7.51777C5.51339 7.04893 5.25 6.41304 5.25 5.75C5.25 5.08696 5.51339 4.45107 5.98223 3.98223C6.45107 3.51339 7.08696 3.25 7.75 3.25C8.41304 3.25 9.04893 3.51339 9.51777 3.98223C9.98661 4.45107 10.25 5.08696 10.25 5.75ZM9 5.75C9 5.41848 8.8683 5.10054 8.63388 4.86612C8.39946 4.6317 8.08152 4.5 7.75 4.5C7.41848 4.5 7.10054 4.6317 6.86612 4.86612C6.6317 5.10054 6.5 5.41848 6.5 5.75C6.5 6.08152 6.6317 6.39946 6.86612 6.63388C7.10054 6.8683 7.41848 7 7.75 7C8.08152 7 8.39946 6.8683 8.63388 6.63388C8.8683 6.39946 9 6.08152 9 5.75Z" fill="black"/>
<path d="M0.25 2.3125C0.25 1.45 0.95 0.75 1.8125 0.75H13.6875C14.55 0.75 15.25 1.45 15.25 2.3125V9.1875C15.25 10.05 14.55 10.75 13.6875 10.75H1.8125C0.95 10.75 0.25 10.05 0.25 9.1875V2.3125ZM1.8125 2C1.72962 2 1.65013 2.03292 1.59153 2.09153C1.53292 2.15013 1.5 2.22962 1.5 2.3125V3.25H2.125C2.29076 3.25 2.44973 3.18415 2.56694 3.06694C2.68415 2.94973 2.75 2.79076 2.75 2.625V2H1.8125ZM1.5 9.1875C1.5 9.36 1.64 9.5 1.8125 9.5H2.75V8.875C2.75 8.70924 2.68415 8.55027 2.56694 8.43306C2.44973 8.31585 2.29076 8.25 2.125 8.25H1.5V9.1875ZM4 8.875V9.5H11.5V8.875C11.5 8.37772 11.6975 7.90081 12.0492 7.54917C12.4008 7.19754 12.8777 7 13.375 7H14V4.5H13.375C12.8777 4.5 12.4008 4.30246 12.0492 3.95083C11.6975 3.59919 11.5 3.12228 11.5 2.625V2H4V2.625C4 3.12228 3.80246 3.59919 3.45083 3.95083C3.09919 4.30246 2.62228 4.5 2.125 4.5H1.5V7H2.125C2.62228 7 3.09919 7.19754 3.45083 7.54917C3.80246 7.90081 4 8.37772 4 8.875ZM12.75 9.5H13.6875C13.7704 9.5 13.8499 9.46708 13.9085 9.40847C13.9671 9.34987 14 9.27038 14 9.1875V8.25H13.375C13.2092 8.25 13.0503 8.31585 12.9331 8.43306C12.8158 8.55027 12.75 8.70924 12.75 8.875V9.5ZM14 3.25V2.3125C14 2.22962 13.9671 2.15013 13.9085 2.09153C13.8499 2.03292 13.7704 2 13.6875 2H12.75V2.625C12.75 2.79076 12.8158 2.94973 12.9331 3.06694C13.0503 3.18415 13.2092 3.25 13.375 3.25H14Z" fill="black"/>
<path d="M4.62506 13.2492C4.22908 13.2494 3.84322 13.1242 3.52279 12.8915C3.20236 12.6589 2.9638 12.3308 2.84131 11.9542C3.01506 11.9842 3.19256 11.9992 3.37506 11.9992H13.6876C14.4335 11.9992 15.1488 11.7029 15.6763 11.1755C16.2037 10.648 16.5001 9.93264 16.5001 9.18672V3.35547C16.8658 3.48477 17.1824 3.72432 17.4063 4.04111C17.6301 4.35789 17.7503 4.73631 17.7501 5.12422V9.18672C17.7501 9.72021 17.645 10.2485 17.4408 10.7414C17.2367 11.2343 16.9374 11.6821 16.5602 12.0593C16.1829 12.4366 15.7351 12.7358 15.2422 12.94C14.7493 13.1441 14.2211 13.2492 13.6876 13.2492H4.62506Z" fill="black"/>
</svg>
