<svg width="14" height="14" viewBox="0 0 14 14" fill="none" xmlns="http://www.w3.org/2000/svg">
<path d="M1.55513 1.66732H4.54843L5.51324 4.07934L3.96332 5.11262C3.77785 5.23626 3.66645 5.44442 3.66645 5.66732C3.66814 5.72974 3.66645 5.66798 3.66645 5.66798L3.66645 5.66868L3.66646 5.67018L3.66648 5.67354L3.66658 5.68176C3.66667 5.68791 3.66684 5.69537 3.66712 5.70411C3.66769 5.72159 3.66871 5.74418 3.67053 5.77156C3.67418 5.82629 3.68106 5.90028 3.69398 5.99077C3.71982 6.17163 3.76997 6.41939 3.86733 6.71147C4.06282 7.29794 4.44694 8.05728 5.19505 8.80539C5.94316 9.5535 6.7025 9.93762 7.28897 10.1331C7.58104 10.2305 7.82881 10.2806 8.00967 10.3065C8.10016 10.3194 8.17414 10.3263 8.22888 10.3299C8.25625 10.3317 8.27885 10.3327 8.29632 10.3333C8.30506 10.3336 8.31253 10.3338 8.31867 10.3339L8.3269 10.334L8.33026 10.334L8.33175 10.334L8.33245 10.334C8.33245 10.334 8.40687 10.3299 8.33312 10.334C8.58563 10.334 8.81647 10.1913 8.9294 9.96546L9.37587 9.07253L12.3331 9.5654V12.4453C10.9257 12.6488 7.12472 12.8494 4.13786 9.86258C1.15099 6.87571 1.3516 3.07472 1.55513 1.66732ZM5.04888 5.99137L6.25284 5.18874C6.77746 4.83899 6.98537 4.16957 6.75121 3.58415L5.7864 1.17213C5.58391 0.665919 5.09364 0.333984 4.54843 0.333984H1.5203C0.914629 0.333984 0.344509 0.754759 0.24508 1.41192C0.0188729 2.90699 -0.289025 7.32132 3.19505 10.8054C6.67912 14.2895 11.0935 13.9816 12.5885 13.7554C13.2457 13.6559 13.6665 13.0858 13.6665 12.4801V9.5654C13.6665 8.91362 13.1952 8.35736 12.5523 8.25021L9.59507 7.75734C9.01769 7.66111 8.44507 7.9527 8.1833 8.47624L7.9523 8.93824C7.8797 8.92042 7.79865 8.89754 7.7106 8.8682C7.29707 8.73035 6.72308 8.44781 6.13786 7.86258C5.55263 7.27736 5.27008 6.70336 5.13224 6.28983C5.09499 6.17809 5.06818 6.07762 5.04888 5.99137Z" fill="#0D0D0D"/>
</svg>
