<svg width="20" height="20" viewBox="0 0 20 20" fill="none" xmlns="http://www.w3.org/2000/svg">
<path fill-rule="evenodd" clip-rule="evenodd" d="M17.7374 8.9313C17.8982 9.04322 18.0499 9.16984 18.1904 9.3103C18.8155 9.93542 19.1667 10.7833 19.1667 11.6673V13.334C19.1667 14.218 18.8155 15.0659 18.1904 15.691C17.9826 15.8988 17.7502 16.0763 17.5 16.2207V16.2506C17.5 17.0242 17.1927 17.7661 16.6457 18.313C16.0988 18.86 15.3569 19.1673 14.5833 19.1673C13.8098 19.1673 13.0679 18.86 12.5209 18.313C12.0731 17.8652 11.786 17.2868 11.6966 16.6673H8.30344C8.21403 17.2868 7.92688 17.8652 7.47907 18.313C6.93209 18.86 6.19023 19.1673 5.41668 19.1673C4.64313 19.1673 3.90126 18.86 3.35428 18.313C2.8073 17.7661 2.50001 17.0242 2.50001 16.2506V16.2207C2.24985 16.0763 2.01745 15.8988 1.80965 15.691C1.18453 15.0659 0.833344 14.218 0.833344 13.334V11.6673C0.833344 10.7833 1.18453 9.93542 1.80965 9.3103C1.95011 9.16984 2.10181 9.04321 2.26263 8.93129L4.05831 2.64692C4.20763 2.12489 4.52296 1.66523 4.9564 1.33823C5.38985 1.01123 5.91797 0.834226 6.46094 0.833985L13.5383 0.833984C14.0813 0.834226 14.6102 1.01123 15.0436 1.33823C15.4771 1.66523 15.7923 2.12445 15.9416 2.64648L17.7374 8.9313ZM13.3333 15.0006V16.2506C13.3333 16.5822 13.465 16.9001 13.6995 17.1345C13.9339 17.369 14.2518 17.5006 14.5833 17.5006C14.9149 17.5006 15.2328 17.369 15.4672 17.1345C15.7016 16.9001 15.8333 16.5822 15.8333 16.2506V15.0006C16.2754 15.0006 16.6993 14.8251 17.0119 14.5125C17.3244 14.1999 17.5 13.776 17.5 13.334V12.5029C17.5 12.5014 17.5 12.4999 17.5 12.4984V11.6673C17.5 11.2253 17.3244 10.8014 17.0119 10.4888C16.6993 10.1762 16.2754 10.0007 15.8333 10.0007H4.16668C3.72465 10.0007 3.30073 10.1762 2.98817 10.4888C2.6756 10.8014 2.50001 11.2253 2.50001 11.6673V13.334C2.50001 13.776 2.6756 14.1999 2.98817 14.5125C3.30073 14.8251 3.72465 15.0006 4.16668 15.0006V16.2506C4.16668 16.5822 4.29837 16.9001 4.53279 17.1345C4.76721 17.369 5.08516 17.5006 5.41668 17.5006C5.7482 17.5006 6.06614 17.369 6.30056 17.1345C6.53498 16.9001 6.66668 16.5822 6.66668 16.2506V15.0006H13.3333ZM15.8333 8.33398L14.3392 3.10482C14.2894 2.93081 14.1843 2.77773 14.0399 2.66873C13.8954 2.55973 13.7193 2.50073 13.5383 2.50065H6.46168C6.28069 2.50073 6.10465 2.55973 5.96017 2.66873C5.81568 2.77773 5.71061 2.93081 5.66084 3.10482L4.16668 8.33398H15.8333Z" fill="black"/>
<ellipse cx="4.99999" cy="12.4993" rx="0.833333" ry="0.833334" fill="black"/>
<circle cx="15" cy="12.4993" r="0.833334" fill="black"/>
</svg>
