<svg width="18" height="18" viewBox="0 0 18 18" fill="none" xmlns="http://www.w3.org/2000/svg">
<path d="M2.45174 2.3328L4.0076 12.4459C4.01892 12.5293 4.0426 12.6089 4.07674 12.6826C4.17951 12.9045 4.37704 13.0736 4.61739 13.1379C4.69081 13.1576 4.76777 13.1675 4.84647 13.1661H14C14.368 13.1661 14.6924 12.9247 14.7982 12.5723L17.2982 4.23892C17.3739 3.98661 17.3258 3.71336 17.1686 3.50202C17.0113 3.29068 16.7634 3.16613 16.5 3.16613H4.26622L3.99214 1.38462C3.98187 1.31014 3.96176 1.23879 3.93316 1.17195C3.88125 1.05022 3.80176 0.944773 3.70357 0.862123C3.61247 0.785297 3.50466 0.72765 3.38638 0.695403C3.31194 0.675016 3.23383 0.664805 3.1539 0.66613H1.49999C1.03975 0.66613 0.666656 1.03923 0.666656 1.49946C0.666656 1.9597 1.03975 2.3328 1.49999 2.3328H2.45174ZM5.54827 11.4995L4.52263 4.8328H15.38L13.38 11.4995H5.54827Z" fill="#0D0D0D"/>
<path d="M7.33332 15.6661C7.33332 16.5866 6.58713 17.3328 5.66666 17.3328C4.74618 17.3328 3.99999 16.5866 3.99999 15.6661C3.99999 14.7457 4.74618 13.9995 5.66666 13.9995C6.58713 13.9995 7.33332 14.7457 7.33332 15.6661Z" fill="#0D0D0D"/>
<path d="M14.8333 15.6661C14.8333 16.5866 14.0871 17.3328 13.1667 17.3328C12.2462 17.3328 11.5 16.5866 11.5 15.6661C11.5 14.7457 12.2462 13.9995 13.1667 13.9995C14.0871 13.9995 14.8333 14.7457 14.8333 15.6661Z" fill="#0D0D0D"/>
</svg>
