<svg width="20" height="20" viewBox="0 0 20 20" fill="none" xmlns="http://www.w3.org/2000/svg">
<path fill-rule="evenodd" clip-rule="evenodd" d="M17.7374 8.9313C17.8982 9.04322 18.0499 9.16984 18.1903 9.3103C18.8155 9.93542 19.1666 10.7833 19.1666 11.6673V13.334C19.1666 14.218 18.8155 15.0659 18.1903 15.691C17.9825 15.8988 17.7501 16.0763 17.5 16.2207V16.2506C17.5 17.0242 17.1927 17.7661 16.6457 18.313C16.0987 18.86 15.3569 19.1673 14.5833 19.1673C13.8098 19.1673 13.0679 18.86 12.5209 18.313C12.0731 17.8652 11.786 17.2868 11.6965 16.6673H8.30341C8.214 17.2868 7.92685 17.8652 7.47904 18.313C6.93206 18.86 6.1902 19.1673 5.41665 19.1673C4.6431 19.1673 3.90123 18.86 3.35425 18.313C2.80727 17.7661 2.49998 17.0242 2.49998 16.2506V16.2207C2.24982 16.0763 2.01742 15.8988 1.80962 15.691C1.1845 15.0659 0.833313 14.218 0.833313 13.334V11.6673C0.833313 10.7833 1.1845 9.93542 1.80962 9.3103C1.95008 9.16984 2.10178 9.04321 2.2626 8.93129L4.05828 2.64692C4.2076 2.12489 4.52293 1.66523 4.95637 1.33823C5.38982 1.01123 5.91794 0.834226 6.46091 0.833985L13.5383 0.833984C14.0813 0.834226 14.6101 1.01123 15.0436 1.33823C15.477 1.66523 15.7922 2.12445 15.9416 2.64648L17.7374 8.9313ZM13.3333 15.0006V16.2506C13.3333 16.5822 13.465 16.9001 13.6994 17.1345C13.9338 17.369 14.2518 17.5006 14.5833 17.5006C14.9148 17.5006 15.2328 17.369 15.4672 17.1345C15.7016 16.9001 15.8333 16.5822 15.8333 16.2506V15.0006C16.2753 15.0006 16.6993 14.8251 17.0118 14.5125C17.3244 14.1999 17.5 13.776 17.5 13.334V12.5029C17.5 12.5014 17.5 12.4999 17.5 12.4984V11.6673C17.5 11.2253 17.3244 10.8014 17.0118 10.4888C16.6993 10.1762 16.2753 10.0007 15.8333 10.0007H4.16665C3.72462 10.0007 3.3007 10.1762 2.98813 10.4888C2.67557 10.8014 2.49998 11.2253 2.49998 11.6673V13.334C2.49998 13.776 2.67557 14.1999 2.98813 14.5125C3.3007 14.8251 3.72462 15.0006 4.16665 15.0006V16.2506C4.16665 16.5822 4.29834 16.9001 4.53276 17.1345C4.76718 17.369 5.08513 17.5006 5.41665 17.5006C5.74817 17.5006 6.06611 17.369 6.30053 17.1345C6.53495 16.9001 6.66665 16.5822 6.66665 16.2506V15.0006H13.3333ZM15.8333 8.33398L14.3391 3.10482C14.2894 2.93081 14.1843 2.77773 14.0398 2.66873C13.8953 2.55973 13.7193 2.50073 13.5383 2.50065H6.46165C6.28066 2.50073 6.10462 2.55973 5.96014 2.66873C5.81565 2.77773 5.71058 2.93081 5.66081 3.10482L4.16665 8.33398H15.8333Z" fill="black"/>
<path d="M5.41665 12.5H14.5833" stroke="black" stroke-width="2" stroke-linecap="round" stroke-linejoin="round"/>
</svg>
