<svg width="12" height="13" viewBox="0 0 12 13" fill="none" xmlns="http://www.w3.org/2000/svg">
<path d="M4 0.333984C4.36819 0.333984 4.66667 0.632461 4.66667 1.00065V1.66732H7.33333V1.00065C7.33333 0.632461 7.63181 0.333984 8 0.333984C8.36819 0.333984 8.66667 0.632461 8.66667 1.00065V1.66732H10.6667C11.403 1.66732 12 2.26427 12 3.00065V11.6673C12 12.4037 11.403 13.0007 10.6667 13.0007H1.33333C0.596954 13.0007 0 12.4037 0 11.6673V3.00065C0 2.26427 0.596954 1.66732 1.33333 1.66732H3.33333V1.00065C3.33333 0.632461 3.63181 0.333984 4 0.333984ZM3.33333 3.00065H1.33333V5.00065H10.6667V3.00065H8.66667V3.66732C8.66667 4.03551 8.36819 4.33398 8 4.33398C7.63181 4.33398 7.33333 4.03551 7.33333 3.66732V3.00065H4.66667V3.66732C4.66667 4.03551 4.36819 4.33398 4 4.33398C3.63181 4.33398 3.33333 4.03551 3.33333 3.66732V3.00065ZM10.6667 6.33398H1.33333V11.6673H10.6667V6.33398Z" fill="#0D0D0D"/>
</svg>
