<svg width="12" height="14" viewBox="0 0 12 14" fill="none" xmlns="http://www.w3.org/2000/svg">
    <path
        d="M2 13.6663H10C10.5304 13.6663 11.0391 13.4556 11.4142 13.0806C11.7893 12.7055 12 12.1968 12 11.6663V3.66634C12 3.31272 11.8595 2.97358 11.6095 2.72353C11.3594 2.47348 11.0203 2.33301 10.6667 2.33301H9.33333V0.999674C9.33333 0.822863 9.2631 0.653294 9.13807 0.52827C9.01305 0.403246 8.84348 0.333008 8.66667 0.333008C8.48986 0.333008 8.32029 0.403246 8.19526 0.52827C8.07024 0.653294 8 0.822863 8 0.999674V2.33301H4V0.999674C4 0.822863 3.92976 0.653294 3.80474 0.52827C3.67971 0.403246 3.51014 0.333008 3.33333 0.333008C3.15652 0.333008 2.98695 0.403246 2.86193 0.52827C2.7369 0.653294 2.66667 0.822863 2.66667 0.999674V2.33301H1.33333C0.979711 2.33301 0.640573 2.47348 0.390524 2.72353C0.140476 2.97358 0 3.31272 0 3.66634V11.6663C0 12.1968 0.210714 12.7055 0.585787 13.0806C0.960859 13.4556 1.46957 13.6663 2 13.6663ZM1.33333 7.33301C1.33333 7.2446 1.36845 7.15982 1.43096 7.09731C1.49348 7.03479 1.57826 6.99967 1.66667 6.99967H10.3333C10.4217 6.99967 10.5065 7.03479 10.569 7.09731C10.6315 7.15982 10.6667 7.2446 10.6667 7.33301V11.6663C10.6667 11.8432 10.5964 12.0127 10.4714 12.1377C10.3464 12.2628 10.1768 12.333 10 12.333H2C1.82319 12.333 1.65362 12.2628 1.5286 12.1377C1.40357 12.0127 1.33333 11.8432 1.33333 11.6663V7.33301Z"
        fill="black" />
</svg>