<svg width="18" height="18" viewBox="0 0 18 18" fill="none" xmlns="http://www.w3.org/2000/svg">
<path d="M6.5 11.5L11.5 6.5" stroke="black" stroke-width="2" stroke-linecap="round" stroke-linejoin="round"/>
<path d="M6.91667 7.33333C7.14679 7.33333 7.33333 7.14679 7.33333 6.91667C7.33333 6.68655 7.14679 6.5 6.91667 6.5C6.68655 6.5 6.5 6.68655 6.5 6.91667C6.5 7.14679 6.68655 7.33333 6.91667 7.33333Z" fill="black" stroke="black" stroke-width="2" stroke-linecap="round" stroke-linejoin="round"/>
<path d="M11.0834 11.5013C11.3135 11.5013 11.5 11.3148 11.5 11.0846C11.5 10.8545 11.3135 10.668 11.0834 10.668C10.8532 10.668 10.6667 10.8545 10.6667 11.0846C10.6667 11.3148 10.8532 11.5013 11.0834 11.5013Z" fill="black" stroke="black" stroke-width="2" stroke-linecap="round" stroke-linejoin="round"/>
<path d="M3.16668 5.00038C3.16668 4.51415 3.35984 4.04784 3.70366 3.70402C4.04747 3.36021 4.51379 3.16705 5.00002 3.16705H5.83335C6.31743 3.16677 6.78176 2.97505 7.12502 2.63372L7.70835 2.05038C7.87872 1.87905 8.08128 1.74309 8.30439 1.65031C8.52749 1.55753 8.76673 1.50977 9.00835 1.50977C9.24997 1.50977 9.48921 1.55753 9.71232 1.65031C9.93542 1.74309 10.138 1.87905 10.3084 2.05038L10.8917 2.63372C11.2349 2.97505 11.6993 3.16677 12.1834 3.16705H13.0167C13.5029 3.16705 13.9692 3.36021 14.313 3.70402C14.6569 4.04784 14.85 4.51415 14.85 5.00038V5.83372C14.8503 6.3178 15.042 6.78213 15.3834 7.12538L15.9667 7.70872C16.138 7.87909 16.274 8.08165 16.3668 8.30475C16.4595 8.52785 16.5073 8.76709 16.5073 9.00872C16.5073 9.25034 16.4595 9.48958 16.3668 9.71268C16.274 9.93578 16.138 10.1383 15.9667 10.3087L15.3834 10.8921C15.042 11.2353 14.8503 11.6996 14.85 12.1837V13.017C14.85 13.5033 14.6569 13.9696 14.313 14.3134C13.9692 14.6572 13.5029 14.8504 13.0167 14.8504H12.1834C11.6993 14.8507 11.2349 15.0424 10.8917 15.3837L10.3084 15.9671C10.138 16.1384 9.93542 16.2743 9.71232 16.3671C9.48921 16.4599 9.24997 16.5077 9.00835 16.5077C8.76673 16.5077 8.52749 16.4599 8.30439 16.3671C8.08128 16.2743 7.87872 16.1384 7.70835 15.9671L7.12502 15.3837C6.78176 15.0424 6.31743 14.8507 5.83335 14.8504H5.00002C4.51379 14.8504 4.04747 14.6572 3.70366 14.3134C3.35984 13.9696 3.16668 13.5033 3.16668 13.017V12.1837C3.16641 11.6996 2.97469 11.2353 2.63335 10.8921L2.05002 10.3087C1.87868 10.1383 1.74272 9.93578 1.64994 9.71268C1.55716 9.48958 1.5094 9.25034 1.5094 9.00872C1.5094 8.76709 1.55716 8.52785 1.64994 8.30475C1.74272 8.08165 1.87868 7.87909 2.05002 7.70872L2.63335 7.12538C2.97469 6.78213 3.16641 6.3178 3.16668 5.83372V5.00038" stroke="black" stroke-width="2" stroke-linecap="round" stroke-linejoin="round"/>
</svg>
