<svg width="16" height="18" viewBox="0 0 16 18" fill="none" xmlns="http://www.w3.org/2000/svg">
<path d="M13.8333 2.50065H13V0.833984H11.3333V2.50065H4.66667V0.833984H3V2.50065H2.16667C1.25 2.50065 0.5 3.25065 0.5 4.16732V15.834C0.5 16.7507 1.25 17.5007 2.16667 17.5007H13.8333C14.75 17.5007 15.5 16.7507 15.5 15.834V4.16732C15.5 3.25065 14.75 2.50065 13.8333 2.50065ZM13.8333 15.834H2.16667V7.50065H13.8333V15.834ZM2.16667 5.83398V4.16732H13.8333V5.83398H2.16667ZM3.83333 9.16732H12.1667V10.834H3.83333V9.16732ZM3.83333 12.5007H9.66667V14.1673H3.83333V12.5007Z" fill="black"/>
</svg>
