<svg width="101" height="109" viewBox="0 0 101 109" fill="none" xmlns="http://www.w3.org/2000/svg">
<circle cx="51" cy="50" r="50" fill="#F1F1F1"/>
<rect x="31.6722" y="29.2927" width="48.3497" height="67.9301" rx="7" transform="rotate(2.5 31.6722 29.2927)" fill="#EEEEEE" stroke="#999999" stroke-width="2"/>
<rect x="1.94639" y="24.6215" width="52.3497" height="71.9301" rx="9" transform="rotate(-7.5 1.94639 24.6215)" fill="#FAFAFA" stroke="#999999" stroke-width="2"/>
<path d="M4.11257 33.414C3.53587 29.0335 6.61944 25.0149 10.9999 24.4382L45.0557 19.9547C49.4362 19.378 53.4548 22.4616 54.0315 26.842L55.0866 34.8568L5.16773 41.4287L4.11257 33.414Z" fill="#EEEEEE"/>
<rect x="63.8447" y="21.0098" width="2.0979" height="6.99301" rx="1.04895" transform="rotate(82.5 63.8447 21.0098)" fill="#999999"/>
<rect x="44.6855" y="9.42383" width="2.0979" height="6.99301" rx="1.04895" transform="rotate(-7.5 44.6855 9.42383)" fill="#999999"/>
<rect x="56.9785" y="11.332" width="2.0979" height="6.99301" rx="1.04895" transform="rotate(37.5 56.9785 11.332)" fill="#999999"/>
<rect x="10.3867" y="43.5625" width="40.5594" height="2.7972" rx="1.3986" transform="rotate(-7.5 10.3867 43.5625)" fill="#DCDCDC"/>
<rect x="12.2129" y="57.4297" width="40.5594" height="2.7972" rx="1.3986" transform="rotate(-7.5 12.2129 57.4297)" fill="#DCDCDC"/>
<rect x="14.0371" y="71.2969" width="40.5594" height="2.7972" rx="1.3986" transform="rotate(-7.5 14.0371 71.2969)" fill="#DCDCDC"/>
<rect x="11.1172" y="49.1094" width="14.6853" height="2.7972" rx="1.3986" transform="rotate(-7.5 11.1172 49.1094)" fill="#EEEEEE"/>
<rect x="12.9424" y="62.9766" width="14.6853" height="2.7972" rx="1.3986" transform="rotate(-7.5 12.9424 62.9766)" fill="#EEEEEE"/>
<rect x="14.7676" y="76.8438" width="14.6853" height="2.7972" rx="1.3986" transform="rotate(-7.5 14.7676 76.8438)" fill="#EEEEEE"/>
</svg>
