<svg width="24" height="19" fill="none" xmlns="http://www.w3.org/2000/svg">
    <path
        d="M11.727 5.281a.693.693 0 01.312-.078c.104 0 .208.026.313.078l7.187 5.938v6.406a.52.52 0 01-.195.43.52.52 0 01-.43.195H14.54a.64.64 0 01-.469-.195.672.672 0 01-.156-.43v-3.75a.693.693 0 00-.078-.313.51.51 0 00-.234-.234.693.693 0 00-.313-.078h-2.5a.64.64 0 00-.469.195.58.58 0 00-.156.43v3.75c0 .156-.065.3-.195.43a.52.52 0 01-.43.195H5.164a.64.64 0 01-.469-.195.58.58 0 01-.156-.43v-6.406l7.188-5.938zm11.406 4.024a.53.53 0 01.156.39c0 .104-.039.196-.117.274l-.977 1.21c-.104.13-.221.196-.351.196a.423.423 0 01-.313-.117l-9.18-7.578a.694.694 0 00-.312-.078.693.693 0 00-.312.078l-9.18 7.578a.375.375 0 01-.274.117.481.481 0 01-.39-.195L.906 9.969a.375.375 0 01-.117-.274.53.53 0 01.156-.39l9.883-8.125c.365-.287.768-.43 1.211-.43.443 0 .833.143 1.172.43l3.516 2.89V1.22c0-.13.039-.235.117-.313a.486.486 0 01.351-.156h2.188c.13 0 .234.052.312.156a.371.371 0 01.157.313v5.43l3.28 2.656z"
        fill="#C7C7C7" />
</svg>