<svg width="16" height="16" viewBox="0 0 16 16" fill="none" xmlns="http://www.w3.org/2000/svg">
<path fill-rule="evenodd" clip-rule="evenodd" d="M5.0562 1.48505C5.45806 1.08319 6.00311 0.857422 6.57143 0.857422H9.42857C9.99689 0.857422 10.5419 1.08319 10.9438 1.48505C11.3457 1.88691 11.5714 2.43196 11.5714 3.00028V3.71456H13.7143C14.8978 3.71456 15.8571 4.67395 15.8571 5.85742V13.0003C15.8571 14.1837 14.8978 15.1431 13.7143 15.1431H2.28571C1.10225 15.1431 0.142857 14.1837 0.142857 13.0003V5.85742C0.142857 4.67395 1.10225 3.71456 2.28571 3.71456H4.42857V3.00028C4.42857 2.43196 4.65434 1.88691 5.0562 1.48505ZM4.42857 5.14314H2.28571C1.89122 5.14314 1.57143 5.46293 1.57143 5.85742V13.0003C1.57143 13.3948 1.89122 13.7146 2.28571 13.7146H4.42857V5.14314ZM5.85714 13.7146V5.14314H10.1429V13.7146H5.85714ZM11.5714 13.7146H13.7143C14.1088 13.7146 14.4286 13.3948 14.4286 13.0003V5.85742C14.4286 5.46293 14.1088 5.14314 13.7143 5.14314H11.5714V13.7146ZM10.1429 3.71456H5.85714V3.00028C5.85714 2.81084 5.9324 2.62916 6.06635 2.4952C6.20031 2.36125 6.38199 2.28599 6.57143 2.28599H9.42857C9.61801 2.28599 9.79969 2.36125 9.93365 2.4952C10.0676 2.62916 10.1429 2.81084 10.1429 3.00028V3.71456Z" fill="#121212"/>
</svg>
