<svg width="20" height="20" viewBox="0 0 20 20" fill="none" xmlns="http://www.w3.org/2000/svg">
<path fill-rule="evenodd" clip-rule="evenodd" d="M19.1667 16.6673V7.08398C19.1667 5.70327 18.0474 4.58398 16.6667 4.58398H15.8333V3.33398C15.8333 1.95327 14.714 0.833984 13.3333 0.833984H6.66667C5.28595 0.833984 4.16667 1.95327 4.16667 3.33398V4.58398H3.33333C1.95262 4.58398 0.833334 5.70327 0.833334 7.08398V16.6673C0.833334 18.048 1.95262 19.1673 3.33333 19.1673H16.6667C18.0474 19.1673 19.1667 18.048 19.1667 16.6673ZM2.5 7.08398C2.5 6.62375 2.8731 6.25065 3.33333 6.25065H5C5.46024 6.25065 5.83333 5.87755 5.83333 5.41732V3.33398C5.83333 2.87375 6.20643 2.50065 6.66667 2.50065H13.3333C13.7936 2.50065 14.1667 2.87375 14.1667 3.33398V5.41732C14.1667 5.87755 14.5398 6.25065 15 6.25065H16.6667C17.1269 6.25065 17.5 6.62375 17.5 7.08398V14.0007H15V16.0007H17.5V16.6673C17.5 17.1276 17.1269 17.5006 16.6667 17.5006H10.8333V10.4173H9.16667V17.5006H3.33333C2.8731 17.5006 2.5 17.1276 2.5 16.6673V7.08398ZM7.5 3.33398H12.5L10 6.66732L8.75 5.00065L7.5 3.33398ZM6.66667 10.0007L8.33333 8.33398L6.66667 5.83398V10.0007ZM13.3333 10.0007V5.83398L11.6667 8.33398L13.3333 10.0007Z" fill="black"/>
</svg>
