<svg width="20" height="12" fill="none" xmlns="http://www.w3.org/2000/svg">
    <path fill-rule="evenodd" clip-rule="evenodd"
        d="M9.159 2.667a2.497 2.497 0 11-4.992 0 2.497 2.497 0 114.992 0zm6.667 0a2.497 2.497 0 11-4.992 0 2.497 2.497 0 114.992 0zM6.667 6.833c-1.941 0-5.833.975-5.833 2.917V11c0 .458.375.833.833.833h10a.836.836 0 00.834-.833V9.75c0-1.942-3.892-2.917-5.834-2.917zm5.859.042c.291-.025.566-.042.808-.042 1.942 0 5.833.975 5.833 2.917V11a.836.836 0 01-.833.833h-4.317c.092-.258.15-.542.15-.833V9.75c0-1.225-.658-2.15-1.608-2.842l-.008-.01a.076.076 0 00-.025-.023z"
        fill="#fff" />
</svg>