<svg width="20" height="20" viewBox="0 0 20 20" fill="none" xmlns="http://www.w3.org/2000/svg">
<path fill-rule="evenodd" clip-rule="evenodd" d="M3.33333 2.5H16.6667C18.5076 2.5 20 3.99238 20 5.83333V14.1667C20 16.0076 18.5076 17.5 16.6667 17.5H3.33333C1.49239 17.5 0 16.0076 0 14.1667V5.83333C0 3.99238 1.49238 2.5 3.33333 2.5ZM3.33333 4.16667C2.41286 4.16667 1.66667 4.91286 1.66667 5.83333V14.1667C1.66667 15.0871 2.41286 15.8333 3.33333 15.8333H16.6667C17.5871 15.8333 18.3333 15.0871 18.3333 14.1667V5.83333C18.3333 4.91286 17.5871 4.16667 16.6667 4.16667H3.33333ZM11.6667 8.33333C11.6667 7.8731 11.9865 7.5 12.381 7.5H15.9524C16.3469 7.5 16.6667 7.8731 16.6667 8.33333C16.6667 8.79357 16.3469 9.16667 15.9524 9.16667H12.381C11.9865 9.16667 11.6667 8.79357 11.6667 8.33333ZM12.381 10.8333C11.9865 10.8333 11.6667 11.2064 11.6667 11.6667C11.6667 12.1269 11.9865 12.5 12.381 12.5H15.9524C16.3469 12.5 16.6667 12.1269 16.6667 11.6667C16.6667 11.2064 16.3469 10.8333 15.9524 10.8333H12.381ZM8.33333 7.5C8.33333 8.42047 7.58714 9.16667 6.66667 9.16667C5.74619 9.16667 5 8.42047 5 7.5C5 6.57952 5.74619 5.83333 6.66667 5.83333C7.58714 5.83333 8.33333 6.57952 8.33333 7.5ZM4.73722 10C3.96187 10 3.33333 10.6285 3.33333 11.4039C3.33333 12.0481 3.77176 12.6096 4.39672 12.7658L5.93906 13.1514C6.41678 13.2709 6.91655 13.2709 7.39427 13.1514L8.93661 12.7658C9.56157 12.6096 10 12.0481 10 11.4039C10 10.6285 9.37146 10 8.59612 10H6.66667H4.73722Z" fill="black"/>
</svg>
