<svg width="18" height="18" viewBox="0 0 18 18" fill="none" xmlns="http://www.w3.org/2000/svg">
<path d="M8.99999 2.33268C5.31809 2.33268 2.33332 5.31745 2.33332 8.99935C2.33332 12.6812 5.31809 15.666 8.99999 15.666C12.6819 15.666 15.6667 12.6812 15.6667 8.99935C15.6667 5.31745 12.6819 2.33268 8.99999 2.33268ZM0.666656 8.99935C0.666656 4.39698 4.39762 0.666016 8.99999 0.666016C13.6024 0.666016 17.3333 4.39698 17.3333 8.99935C17.3333 13.6017 13.6024 17.3327 8.99999 17.3327C4.39762 17.3327 0.666656 13.6017 0.666656 8.99935Z" fill="#0D0D0D"/>
<path d="M8.99999 7.33268C9.46023 7.33268 9.83332 7.70578 9.83332 8.16602V13.166C9.83332 13.6263 9.46023 13.9993 8.99999 13.9993C8.53975 13.9993 8.16666 13.6263 8.16666 13.166V8.16602C8.16666 7.70578 8.53975 7.33268 8.99999 7.33268Z" fill="#0D0D0D"/>
<path d="M10.25 5.24935C10.25 5.93971 9.69035 6.49935 8.99999 6.49935C8.30963 6.49935 7.74999 5.93971 7.74999 5.24935C7.74999 4.55899 8.30963 3.99935 8.99999 3.99935C9.69035 3.99935 10.25 4.55899 10.25 5.24935Z" fill="#0D0D0D"/>
</svg>
