<svg width="18" height="18" fill="none" xmlns="http://www.w3.org/2000/svg">
    <path
        d="M2.813 3.098C4.522 1.387 6.585.53 9 .53s4.465.856 6.152 2.567c1.711 1.687 2.567 3.738 2.567 6.152s-.856 4.477-2.567 6.188c-1.687 1.687-3.738 2.53-6.152 2.53s-4.477-.843-6.188-2.53C1.125 13.726.283 11.663.283 9.25c0-2.414.843-4.465 2.53-6.152zM11.18 4.82c-.61-.61-1.336-.914-2.18-.914-.844 0-1.57.305-2.18.914-.61.61-.914 1.336-.914 2.18 0 .844.305 1.57.914 2.18.61.61 1.336.914 2.18.914.844 0 1.57-.305 2.18-.914.61-.61.914-1.336.914-2.18 0-.844-.305-1.57-.914-2.18zm-7.313 8.79C5.203 15.202 6.914 16 9 16s3.797-.797 5.133-2.39a3.796 3.796 0 00-1.406-1.512 3.646 3.646 0 00-2.04-.598c-.07 0-.152.012-.246.035A4.545 4.545 0 019 11.781c-.469 0-.95-.082-1.441-.246a1.03 1.03 0 00-.247-.035c-.75 0-1.43.2-2.039.598a3.796 3.796 0 00-1.406 1.511z"
        fill="#C7C7C7" fill-opacity=".74" />
</svg>