<svg width="20" height="20" viewBox="0 0 20 20" fill="none" xmlns="http://www.w3.org/2000/svg">
<path fill-rule="evenodd" clip-rule="evenodd" d="M13.3333 2.50065H13.9988L12.6014 3.61858C11.6379 2.91554 10.4507 2.50065 9.16667 2.50065C5.94501 2.50065 3.33333 5.11232 3.33333 8.33398C3.33333 11.2727 5.50642 13.7039 8.33333 14.1082V15.0007H6.66667C6.20643 15.0007 5.83333 15.3737 5.83333 15.834C5.83333 16.2942 6.20643 16.6673 6.66667 16.6673H8.33333V18.334C8.33333 18.7942 8.70643 19.1673 9.16667 19.1673C9.6269 19.1673 10 18.7942 10 18.334V16.6673H11.6667C12.1269 16.6673 12.5 16.2942 12.5 15.834C12.5 15.3737 12.1269 15.0007 11.6667 15.0007H10V14.1082C12.8269 13.7039 15 11.2727 15 8.33398C15 7.00201 14.5536 5.77431 13.8022 4.79233L15.4167 3.50075V4.16732C15.4167 4.62755 15.7898 5.00065 16.25 5.00065C16.7102 5.00065 17.0833 4.62755 17.0833 4.16732V1.66732C17.0833 1.20708 16.7102 0.833984 16.25 0.833984H13.3333C12.8731 0.833984 12.5 1.20708 12.5 1.66732C12.5 2.12756 12.8731 2.50065 13.3333 2.50065ZM9.16667 12.5007C11.4679 12.5007 13.3333 10.6352 13.3333 8.33398C13.3333 6.0328 11.4679 4.16732 9.16667 4.16732C6.86548 4.16732 5 6.0328 5 8.33398C5 10.6352 6.86548 12.5007 9.16667 12.5007Z" fill="black"/>
</svg>
