<svg width="12" height="16" fill="none" xmlns="http://www.w3.org/2000/svg">
    <path
        d="M7 4.25c0 .208.073.385.219.531A.723.723 0 007.75 5H12v10.25a.723.723 0 01-.219.531.723.723 0 01-.531.219H.75a.723.723 0 01-.531-.219A.723.723 0 010 15.25V.75C0 .542.073.365.219.219A.723.723 0 01.75 0H7v4.25zm2 7.375v-.25c0-.25-.125-.375-.375-.375h-5.25c-.25 0-.375.125-.375.375v.25c0 .25.125.375.375.375h5.25c.25 0 .375-.125.375-.375zm0-2v-.25C9 9.125 8.875 9 8.625 9h-5.25C3.125 9 3 9.125 3 9.375v.25c0 .25.125.375.375.375h5.25c.25 0 .375-.125.375-.375zm0-2.25C9 7.125 8.875 7 8.625 7h-5.25C3.125 7 3 7.125 3 7.375v.25c0 .25.125.375.375.375h5.25C8.875 8 9 7.875 9 7.625v-.25zm3-3.563V4H8V0h.188c.208 0 .385.073.53.219l3.063 3.062a.723.723 0 01.219.531z"
        fill="#C7C7C7" fill-opacity=".74" />
</svg>