<svg width="17" height="17" viewBox="0 0 17 17" fill="none" xmlns="http://www.w3.org/2000/svg">
<path d="M16.603 6.51947C17.1596 8.2291 17.1241 10.0764 16.5022 11.7634C15.8803 13.4503 14.7082 14.8786 13.175 15.8178C11.6419 16.757 9.83707 17.1524 8.05168 16.9402C6.2663 16.7279 4.60445 15.9204 3.33422 14.648C2.06399 13.3755 1.25943 11.7123 1.05033 9.92649C0.841229 8.14074 1.23977 6.3366 2.18168 4.80511C3.12358 3.27361 4.55392 2.10406 6.24198 1.48509C7.93004 0.866132 9.77739 0.833854 11.486 1.39347L10.438 2.44047C10.38 2.49847 10.328 2.56047 10.28 2.62647C8.91212 2.35037 7.49167 2.52184 6.22876 3.11551C4.96584 3.70919 3.92752 4.69356 3.26735 5.92302C2.60718 7.15249 2.36023 8.56178 2.563 9.94247C2.76577 11.3232 3.40751 12.6019 4.39331 13.5897C5.37911 14.5774 6.65661 15.2216 8.0369 15.4271C9.41718 15.6326 10.827 15.3884 12.0577 14.7307C13.2885 14.0729 14.2749 13.0365 14.871 11.7748C15.4672 10.513 15.6414 9.09292 15.368 7.72447C15.4365 7.67593 15.5007 7.62174 15.56 7.56247L16.602 6.52047L16.603 6.51947ZM13.898 8.00047C14.1127 9.05362 13.9823 10.1479 13.5262 11.1211C13.07 12.0944 12.3124 12.8947 11.3657 13.4035C10.4189 13.9123 9.3334 14.1025 8.27006 13.9458C7.20673 13.7892 6.22217 13.294 5.46236 12.5338C4.70254 11.7736 4.20792 10.7888 4.05181 9.72539C3.89571 8.66197 4.08643 7.57655 4.59571 6.63005C5.10499 5.68355 5.90571 4.92635 6.87916 4.47071C7.85262 4.01507 8.94699 3.88524 10 4.10047V5.64547C9.25375 5.4226 8.45444 5.45503 7.72866 5.73761C7.00288 6.0202 6.39209 6.53679 5.99298 7.20562C5.59387 7.87444 5.42925 8.65728 5.52518 9.43021C5.62111 10.2031 5.97211 10.922 6.52261 11.4729C7.07311 12.0239 7.79165 12.3755 8.5645 12.4721C9.33734 12.5687 10.1203 12.4047 10.7895 12.0062C11.4586 11.6077 11.9758 10.9973 12.259 10.2718C12.5422 9.54622 12.5753 8.74694 12.353 8.00047H13.898ZM8.99804 10.5005C9.22808 10.5006 9.45506 10.4478 9.66144 10.3462C9.86782 10.2446 10.0481 10.0968 10.1882 9.91442C10.3284 9.73202 10.4247 9.51982 10.4698 9.29423C10.5148 9.06864 10.5074 8.83572 10.448 8.61347L12.03 7.03047L12.06 7.00047H14.5C14.5657 7.00058 14.6308 6.98775 14.6916 6.9627C14.7523 6.93765 14.8075 6.90087 14.854 6.85447L16.854 4.85447C16.9241 4.78454 16.9719 4.69537 16.9913 4.59826C17.0106 4.50115 17.0007 4.40048 16.9628 4.309C16.9249 4.21753 16.8607 4.13937 16.7783 4.08445C16.6959 4.02952 16.5991 4.00029 16.5 4.00047H14V1.50047C14 1.40165 13.9707 1.30506 13.9158 1.22288C13.861 1.14071 13.783 1.07664 13.6917 1.03876C13.6004 1.00089 13.5 0.990902 13.403 1.01007C13.3061 1.02924 13.217 1.0767 13.147 1.14647L11.147 3.14647C11.1005 3.1929 11.0635 3.24807 11.0383 3.30882C11.013 3.36957 11.0001 3.43469 11 3.50047V5.94047C10.9898 5.95019 10.9798 5.96019 10.97 5.97047L9.38804 7.55047C9.18142 7.49406 8.96512 7.48252 8.75367 7.51664C8.54222 7.55075 8.34052 7.62972 8.16212 7.74824C7.98372 7.86676 7.83275 8.02209 7.71936 8.20379C7.60596 8.38549 7.53276 8.58935 7.50468 8.80168C7.4766 9.01402 7.49429 9.2299 7.55655 9.43483C7.61882 9.63976 7.72422 9.829 7.86568 9.98982C8.00713 10.1506 8.18137 10.2793 8.37668 10.3672C8.57199 10.4551 8.78386 10.5002 8.99804 10.4995V10.5005Z" fill="black"/>
</svg>
