<svg width="12" height="8" viewBox="0 0 12 8" fill="none" xmlns="http://www.w3.org/2000/svg">
<path d="M0.666992 0.666667C0.666992 0.298477 0.965469 0 1.33366 0H2.00033C2.36852 0 2.66699 0.298477 2.66699 0.666667C2.66699 1.03486 2.36852 1.33333 2.00033 1.33333H1.33366C0.965469 1.33333 0.666992 1.03486 0.666992 0.666667ZM4.00033 0.666667C4.00033 0.298477 4.2988 0 4.66699 0H10.667C11.0352 0 11.3337 0.298477 11.3337 0.666667C11.3337 1.03486 11.0352 1.33333 10.667 1.33333H4.66699C4.2988 1.33333 4.00033 1.03486 4.00033 0.666667ZM0.666992 4C0.666992 3.63181 0.965469 3.33333 1.33366 3.33333H2.00033C2.36852 3.33333 2.66699 3.63181 2.66699 4C2.66699 4.36819 2.36852 4.66667 2.00033 4.66667H1.33366C0.965469 4.66667 0.666992 4.36819 0.666992 4ZM4.00033 4C4.00033 3.63181 4.2988 3.33333 4.66699 3.33333H10.667C11.0352 3.33333 11.3337 3.63181 11.3337 4C11.3337 4.36819 11.0352 4.66667 10.667 4.66667H4.66699C4.2988 4.66667 4.00033 4.36819 4.00033 4ZM0.666992 7.33333C0.666992 6.96514 0.965469 6.66667 1.33366 6.66667H2.00033C2.36852 6.66667 2.66699 6.96514 2.66699 7.33333C2.66699 7.70152 2.36852 8 2.00033 8H1.33366C0.965469 8 0.666992 7.70152 0.666992 7.33333ZM4.00033 7.33333C4.00033 6.96514 4.2988 6.66667 4.66699 6.66667H10.667C11.0352 6.66667 11.3337 6.96514 11.3337 7.33333C11.3337 7.70152 11.0352 8 10.667 8H4.66699C4.2988 8 4.00033 7.70152 4.00033 7.33333Z" fill="#0D0D0D"/>
</svg>
