<svg width="20" height="20" viewBox="0 0 20 20" fill="none" xmlns="http://www.w3.org/2000/svg">
<path fill-rule="evenodd" clip-rule="evenodd" d="M8.59497 2.03693C9.11106 1.52084 9.8269 1.25605 10.5546 1.31207L15.7169 1.70944C16.9462 1.80407 17.923 2.78085 18.0176 4.01019L18.415 9.17247C18.471 9.90017 18.2062 10.616 17.6901 11.1321L11.4941 17.3282C10.5178 18.3045 8.93484 18.3045 7.95853 17.3282L2.39889 11.7685C1.42258 10.7922 1.42258 9.20932 2.39889 8.23301L8.59497 2.03693ZM10.4267 2.97382C10.1841 2.95515 9.94551 3.04341 9.77348 3.21544L3.5774 9.41152C3.25196 9.73696 3.25196 10.2646 3.5774 10.59L9.13704 16.1497C9.46248 16.4751 9.99012 16.4751 10.3156 16.1497L16.5116 9.9536C16.6837 9.78157 16.7719 9.54295 16.7533 9.30038L16.3559 4.13811C16.3243 3.72833 15.9988 3.40273 15.589 3.37119L10.4267 2.97382Z" fill="black"/>
<circle cx="13.4762" cy="6.25" r="1.25" fill="black"/>
</svg>
