<svg width="20" height="20" viewBox="0 0 20 20" fill="none" xmlns="http://www.w3.org/2000/svg">
<path d="M8.33332 3.33268C6.49237 3.33268 4.99999 4.82507 4.99999 6.66602C4.99999 8.50697 6.49237 9.99935 8.33332 9.99935C10.1743 9.99935 11.6667 8.50697 11.6667 6.66602C11.6667 4.82507 10.1743 3.33268 8.33332 3.33268ZM3.33332 6.66602C3.33332 3.90459 5.5719 1.66602 8.33332 1.66602C11.0947 1.66602 13.3333 3.90459 13.3333 6.66602C13.3333 9.42744 11.0947 11.666 8.33332 11.666C5.5719 11.666 3.33332 9.42744 3.33332 6.66602ZM5.41666 14.9993C4.36711 14.9993 3.33332 16.0106 3.33332 17.4993C3.33332 17.9596 2.96023 18.3327 2.49999 18.3327C2.03975 18.3327 1.66666 17.9596 1.66666 17.4993C1.66666 15.3062 3.24455 13.3327 5.41666 13.3327H11.25C13.4221 13.3327 15 15.3062 15 17.4993C15 17.9596 14.6269 18.3327 14.1667 18.3327C13.7064 18.3327 13.3333 17.9596 13.3333 17.4993C13.3333 16.0106 12.2995 14.9993 11.25 14.9993H5.41666Z" fill="#0D0D0D"/>
<path d="M15.8333 7.5C16.2936 7.5 16.6667 7.8731 16.6667 8.33333V10.4882L16.9108 10.2441C17.2362 9.91864 17.7638 9.91864 18.0893 10.2441C18.4147 10.5695 18.4147 11.0972 18.0893 11.4226L16.4226 13.0893C16.0972 13.4147 15.5695 13.4147 15.2441 13.0893L13.5774 11.4226C13.252 11.0972 13.252 10.5695 13.5774 10.2441C13.9029 9.91864 14.4305 9.91864 14.7559 10.2441L15 10.4882L15 8.33333C15 7.8731 15.3731 7.5 15.8333 7.5Z" fill="#0D0D0D"/>
</svg>
