<svg width="16" height="18" viewBox="0 0 16 18" fill="none" xmlns="http://www.w3.org/2000/svg">
<path d="M8 2.33366C6.15905 2.33366 4.66667 3.82604 4.66667 5.66699C4.66667 7.50794 6.15905 9.00033 8 9.00033C9.84095 9.00033 11.3333 7.50794 11.3333 5.66699C11.3333 3.82604 9.84095 2.33366 8 2.33366ZM3 5.66699C3 2.90557 5.23858 0.666992 8 0.666992C10.7614 0.666992 13 2.90557 13 5.66699C13 8.42842 10.7614 10.667 8 10.667C5.23858 10.667 3 8.42842 3 5.66699ZM4.66667 14.0003C3.28595 14.0003 2.16667 15.1196 2.16667 16.5003C2.16667 16.9606 1.79357 17.3337 1.33333 17.3337C0.873096 17.3337 0.5 16.9606 0.5 16.5003C0.5 14.1991 2.36548 12.3337 4.66667 12.3337H11.3333C13.6345 12.3337 15.5 14.1991 15.5 16.5003C15.5 16.9606 15.1269 17.3337 14.6667 17.3337C14.2064 17.3337 13.8333 16.9606 13.8333 16.5003C13.8333 15.1196 12.714 14.0003 11.3333 14.0003H4.66667Z" fill="#0D0D0D"/>
</svg>
