<svg width="18" height="18" viewBox="0 0 18 18" fill="none" xmlns="http://www.w3.org/2000/svg">
<path d="M7.33366 2.33366C5.49271 2.33366 4.00033 3.82604 4.00033 5.66699C4.00033 7.50794 5.49271 9.00033 7.33366 9.00033C9.17461 9.00033 10.667 7.50794 10.667 5.66699C10.667 3.82604 9.17461 2.33366 7.33366 2.33366ZM2.33366 5.66699C2.33366 2.90557 4.57224 0.666992 7.33366 0.666992C10.0951 0.666992 12.3337 2.90557 12.3337 5.66699C12.3337 8.42842 10.0951 10.667 7.33366 10.667C4.57224 10.667 2.33366 8.42842 2.33366 5.66699ZM17.054 8.37749C17.3979 8.68325 17.4289 9.20998 17.1232 9.55396L14.9009 12.054C14.7428 12.2319 14.5161 12.3337 14.2781 12.3337C14.0401 12.3337 13.8134 12.2319 13.6553 12.054L12.5442 10.804C12.2384 10.46 12.2694 9.93325 12.6134 9.62748C12.9573 9.32172 13.4841 9.3527 13.7898 9.69669L14.2781 10.246L15.8775 8.44669C16.1833 8.1027 16.71 8.07172 17.054 8.37749ZM4.41699 14.0003C3.36744 14.0003 2.33366 15.0116 2.33366 16.5003C2.33366 16.9606 1.96056 17.3337 1.50033 17.3337C1.04009 17.3337 0.666992 16.9606 0.666992 16.5003C0.666992 14.3071 2.24488 12.3337 4.41699 12.3337H10.2503C12.4224 12.3337 14.0003 14.3071 14.0003 16.5003C14.0003 16.9606 13.6272 17.3337 13.167 17.3337C12.7068 17.3337 12.3337 16.9606 12.3337 16.5003C12.3337 15.0116 11.2999 14.0003 10.2503 14.0003H4.41699Z" fill="#0D0D0D"/>
</svg>
