<svg width="18" height="18" viewBox="0 0 18 18" fill="none" xmlns="http://www.w3.org/2000/svg">
<path d="M7.33366 2.33366C5.49271 2.33366 4.00033 3.82604 4.00033 5.66699C4.00033 7.50794 5.49271 9.00033 7.33366 9.00033C9.17461 9.00033 10.667 7.50794 10.667 5.66699C10.667 3.82604 9.17461 2.33366 7.33366 2.33366ZM2.33366 5.66699C2.33366 2.90557 4.57224 0.666992 7.33366 0.666992C10.0951 0.666992 12.3337 2.90557 12.3337 5.66699C12.3337 8.42842 10.0951 10.667 7.33366 10.667C4.57224 10.667 2.33366 8.42842 2.33366 5.66699ZM13.024 2.13146C13.3495 1.80602 13.8771 1.80602 14.2025 2.13146C16.1552 4.08408 16.1552 7.24991 14.2025 9.20253C13.8771 9.52796 13.3495 9.52796 13.024 9.20253C12.6986 8.87709 12.6986 8.34945 13.024 8.02402C14.3258 6.72227 14.3258 4.61172 13.024 3.30997C12.6986 2.98453 12.6986 2.4569 13.024 2.13146ZM13.6085 12.9649C13.7202 12.5184 14.1726 12.2469 14.6191 12.3585C15.7257 12.6352 16.4262 13.3428 16.829 14.1485C17.2188 14.9281 17.3337 15.7979 17.3337 16.5003C17.3337 16.9606 16.9606 17.3337 16.5003 17.3337C16.0401 17.3337 15.667 16.9606 15.667 16.5003C15.667 15.9527 15.5735 15.3642 15.3383 14.8938C15.1162 14.4496 14.7749 14.1155 14.2149 13.9754C13.7684 13.8638 13.4969 13.4114 13.6085 12.9649ZM4.41699 14.0003C3.36744 14.0003 2.33366 15.0116 2.33366 16.5003C2.33366 16.9606 1.96056 17.3337 1.50033 17.3337C1.04009 17.3337 0.666992 16.9606 0.666992 16.5003C0.666992 14.3071 2.24488 12.3337 4.41699 12.3337H10.2503C12.4224 12.3337 14.0003 14.3071 14.0003 16.5003C14.0003 16.9606 13.6272 17.3337 13.167 17.3337C12.7068 17.3337 12.3337 16.9606 12.3337 16.5003C12.3337 15.0116 11.2999 14.0003 10.2503 14.0003H4.41699Z" fill="#0D0D0D"/>
</svg>
