<svg width="18" height="18" viewBox="0 0 18 18" fill="none" xmlns="http://www.w3.org/2000/svg">
<path d="M7.33317 2.33317C5.49222 2.33317 3.99984 3.82555 3.99984 5.6665C3.99984 7.50745 5.49222 8.99984 7.33317 8.99984C9.17412 8.99984 10.6665 7.50745 10.6665 5.6665C10.6665 3.82555 9.17412 2.33317 7.33317 2.33317ZM2.33317 5.6665C2.33317 2.90508 4.57175 0.666504 7.33317 0.666504C10.0946 0.666504 12.3332 2.90508 12.3332 5.6665C12.3332 8.42793 10.0946 10.6665 7.33317 10.6665C4.57175 10.6665 2.33317 8.42793 2.33317 5.6665ZM17.0535 8.377C17.3975 8.68276 17.4284 9.20949 17.1227 9.55347L14.9005 12.0535C14.7423 12.2314 14.5156 12.3332 14.2776 12.3332C14.0396 12.3332 13.8129 12.2314 13.6548 12.0535L12.5437 10.8035C12.2379 10.4595 12.2689 9.93276 12.6129 9.627C12.9569 9.32123 13.4836 9.35222 13.7893 9.6962L14.2776 10.2455L15.877 8.4462C16.1828 8.10222 16.7095 8.07123 17.0535 8.377ZM4.4165 13.9998C3.36696 13.9998 2.33317 15.0111 2.33317 16.4998C2.33317 16.9601 1.96007 17.3332 1.49984 17.3332C1.0396 17.3332 0.666504 16.9601 0.666504 16.4998C0.666504 14.3067 2.24439 12.3332 4.4165 12.3332H10.2498C12.422 12.3332 13.9998 14.3067 13.9998 16.4998C13.9998 16.9601 13.6267 17.3332 13.1665 17.3332C12.7063 17.3332 12.3332 16.9601 12.3332 16.4998C12.3332 15.0111 11.2994 13.9998 10.2498 13.9998H4.4165Z" fill="#0D0D0D"/>
</svg>
