<svg width="18" height="16" viewBox="0 0 18 16" fill="none" xmlns="http://www.w3.org/2000/svg">
<path d="M0.666504 1.99967C0.666504 1.0792 1.4127 0.333008 2.33317 0.333008H15.6665C16.587 0.333008 17.3332 1.0792 17.3332 1.99967V11.1663C17.3332 12.0868 16.587 12.833 15.6665 12.833H11.845L9.58909 15.0889C9.26366 15.4144 8.73602 15.4144 8.41058 15.0889L6.15466 12.833H2.33317C1.4127 12.833 0.666504 12.0868 0.666504 11.1663V1.99967ZM15.6665 1.99967H2.33317V11.1663H6.49984C6.72085 11.1663 6.93281 11.2541 7.08909 11.4104L8.99984 13.3212L10.9106 11.4104C11.0669 11.2541 11.2788 11.1663 11.4998 11.1663H15.6665V1.99967Z" fill="#0D0D0D"/>
<path d="M10.2498 6.58301C10.2498 7.27336 9.69019 7.83301 8.99984 7.83301C8.30948 7.83301 7.74984 7.27336 7.74984 6.58301C7.74984 5.89265 8.30948 5.33301 8.99984 5.33301C9.69019 5.33301 10.2498 5.89265 10.2498 6.58301Z" fill="#0D0D0D"/>
<path d="M13.5832 6.58301C13.5832 7.27336 13.0235 7.83301 12.3332 7.83301C11.6428 7.83301 11.0832 7.27336 11.0832 6.58301C11.0832 5.89265 11.6428 5.33301 12.3332 5.33301C13.0235 5.33301 13.5832 5.89265 13.5832 6.58301Z" fill="#0D0D0D"/>
<path d="M6.9165 6.58301C6.9165 7.27336 6.35686 7.83301 5.6665 7.83301C4.97615 7.83301 4.4165 7.27336 4.4165 6.58301C4.4165 5.89265 4.97615 5.33301 5.6665 5.33301C6.35686 5.33301 6.9165 5.89265 6.9165 6.58301Z" fill="#0D0D0D"/>
</svg>
