<svg width="14" height="18" viewBox="0 0 14 18" fill="none" xmlns="http://www.w3.org/2000/svg">
<path d="M6.99992 2.33366C8.37301 2.33366 9.49992 3.46056 9.49992 4.83366V7.33366H4.49992V4.83366C4.49992 3.46056 5.62682 2.33366 6.99992 2.33366ZM11.1666 7.33366V4.83366C11.1666 2.54009 9.29349 0.666992 6.99992 0.666992C4.70635 0.666992 2.83325 2.54009 2.83325 4.83366V7.33366H1.99992C1.07944 7.33366 0.333252 8.07985 0.333252 9.00033V15.667C0.333252 16.5875 1.07945 17.3337 1.99992 17.3337H11.9999C12.9204 17.3337 13.6666 16.5875 13.6666 15.667V9.00033C13.6666 8.07985 12.9204 7.33366 11.9999 7.33366H11.1666ZM1.99992 9.00033H11.9999V15.667H1.99992V9.00033Z" fill="#0D0D0D"/>
</svg>
