<svg width="36" height="36" viewBox="0 0 36 36" fill="none" xmlns="http://www.w3.org/2000/svg">
<rect width="36" height="36" rx="18" transform="matrix(-1 0 0 1 36 0)" fill="#EBEBEB"/>
<path d="M17.9998 9.60254C13.3973 9.60254 9.6665 13.0834 9.6665 17.3784C9.67609 18.5522 9.95834 19.7077 10.491 20.7537C11.0236 21.7997 11.7921 22.7077 12.7357 23.4059V26.3975L15.5332 24.8075C16.3352 25.0377 17.1655 25.1541 17.9998 25.1534C22.6023 25.1534 26.3332 21.6717 26.3332 17.3784C26.3332 13.085 22.6023 9.60254 17.9998 9.60254ZM18.8432 20.0067L16.7057 17.7625L12.6157 20.0067L17.1098 15.25L19.2673 17.455L23.3115 15.25L18.8432 20.0067Z" fill="#161616"/>
</svg>
