<svg width="14" height="14" viewBox="0 0 14 14" fill="none" xmlns="http://www.w3.org/2000/svg">
<path d="M5.66668 1.66732C4.19392 1.66732 3.00001 2.86123 3.00001 4.33398C3.00001 5.80674 4.19392 7.00065 5.66668 7.00065C7.13944 7.00065 8.33334 5.80674 8.33334 4.33398C8.33334 2.86123 7.13944 1.66732 5.66668 1.66732ZM1.66668 4.33398C1.66668 2.12485 3.45754 0.333984 5.66668 0.333984C7.87582 0.333984 9.66668 2.12485 9.66668 4.33398C9.66668 6.54312 7.87582 8.33398 5.66668 8.33398C3.45754 8.33398 1.66668 6.54312 1.66668 4.33398ZM11.6667 6.33398C12.0349 6.33398 12.3333 6.63246 12.3333 7.00065V7.66732H13C13.3682 7.66732 13.6667 7.96579 13.6667 8.33398C13.6667 8.70218 13.3682 9.00065 13 9.00065H12.3333V9.66732C12.3333 10.0355 12.0349 10.334 11.6667 10.334C11.2985 10.334 11 10.0355 11 9.66732V9.00065H10.3333C9.96515 9.00065 9.66668 8.70218 9.66668 8.33398C9.66668 7.96579 9.96515 7.66732 10.3333 7.66732H11V7.00065C11 6.63246 11.2985 6.33398 11.6667 6.33398ZM3.33334 11.0007C2.4937 11.0007 1.66668 11.8097 1.66668 13.0007C1.66668 13.3688 1.3682 13.6673 1.00001 13.6673C0.63182 13.6673 0.333344 13.3688 0.333344 13.0007C0.333344 11.2461 1.59565 9.66732 3.33334 9.66732H8.00001C9.7377 9.66732 11 11.2461 11 13.0007C11 13.3688 10.7015 13.6673 10.3333 13.6673C9.96515 13.6673 9.66668 13.3688 9.66668 13.0007C9.66668 11.8097 8.83965 11.0007 8.00001 11.0007H3.33334Z" fill="#F8F8F8"/>
</svg>
