<svg width="18" height="18" viewBox="0 0 18 18" fill="none" xmlns="http://www.w3.org/2000/svg">
<path d="M8.99984 2.33366C5.31794 2.33366 2.33317 5.31843 2.33317 9.00033C2.33317 12.6822 5.31794 15.667 8.99984 15.667C12.6817 15.667 15.6665 12.6822 15.6665 9.00033C15.6665 5.31843 12.6817 2.33366 8.99984 2.33366ZM0.666504 9.00033C0.666504 4.39795 4.39746 0.666992 8.99984 0.666992C13.6022 0.666992 17.3332 4.39795 17.3332 9.00033C17.3332 13.6027 13.6022 17.3337 8.99984 17.3337C4.39746 17.3337 0.666504 13.6027 0.666504 9.00033Z" fill="#0D0D0D"/>
<path d="M8.99984 7.33366C9.46008 7.33366 9.83317 7.70676 9.83317 8.16699V13.167C9.83317 13.6272 9.46008 14.0003 8.99984 14.0003C8.5396 14.0003 8.1665 13.6272 8.1665 13.167V8.16699C8.1665 7.70676 8.5396 7.33366 8.99984 7.33366Z" fill="#0D0D0D"/>
<path d="M10.2498 5.25033C10.2498 5.94068 9.69019 6.50033 8.99984 6.50033C8.30948 6.50033 7.74984 5.94068 7.74984 5.25033C7.74984 4.55997 8.30948 4.00033 8.99984 4.00033C9.69019 4.00033 10.2498 4.55997 10.2498 5.25033Z" fill="#0D0D0D"/>
</svg>
