<svg width="15" height="14" viewBox="0 0 15 14" fill="none" xmlns="http://www.w3.org/2000/svg">
<path fill-rule="evenodd" clip-rule="evenodd" d="M12.0818 11.3157C12.3201 11.035 12.2416 10.6173 11.9385 10.4082C11.6354 10.1991 11.2231 10.2786 10.9779 10.5532C10.3004 11.3119 9.41646 11.8647 8.42753 12.1394C7.22341 12.4739 5.94007 12.3749 4.80148 11.8598C3.66289 11.3446 2.74136 10.446 2.19772 9.32072C1.65408 8.19545 1.52286 6.91501 1.82696 5.70286C2.13106 4.49072 2.85117 3.42385 3.86161 2.68847C4.87204 1.95308 6.10863 1.59587 7.35556 1.67919C8.60249 1.76251 9.78057 2.28106 10.6842 3.14434C11.4263 3.85336 11.9446 4.75792 12.1838 5.74654C12.2704 6.10441 12.5963 6.36917 12.9621 6.32789C13.328 6.2866 13.5945 5.95539 13.5169 5.59547C13.2368 4.29645 12.5734 3.10523 11.6052 2.18026C10.4757 1.10116 9.00312 0.452973 7.44446 0.348825C5.88579 0.244676 4.34005 0.691183 3.07701 1.61042C1.81397 2.52965 0.913832 3.86323 0.533707 5.37842C0.153582 6.8936 0.317607 8.49415 0.997156 9.90074C1.6767 11.3073 2.82862 12.4306 4.25186 13.0746C5.6751 13.7185 7.27927 13.8422 8.78441 13.4241C10.0746 13.0657 11.2217 12.3287 12.0818 11.3157ZM6.99999 5.00066C6.6318 5.00066 6.33332 5.29914 6.33332 5.66733C6.33332 6.03552 6.6318 6.33399 6.99999 6.33399C7.36818 6.33399 7.66665 6.03552 7.66665 5.66733C7.66665 5.29914 7.36818 5.00066 6.99999 5.00066ZM4.99999 5.66733C4.99999 4.56276 5.89542 3.66733 6.99999 3.66733C8.10456 3.66733 8.99999 4.56276 8.99999 5.66733C8.99999 6.2164 8.77872 6.7138 8.42049 7.07522C8.59893 7.10545 8.77239 7.1479 8.93631 7.20751C9.25544 7.32356 9.55503 7.50782 9.8022 7.79486C10.0465 8.07856 10.2112 8.42969 10.3136 8.83902C10.4029 9.19621 10.1857 9.55817 9.8285 9.64747C9.4713 9.73677 9.10935 9.51959 9.02005 9.1624C8.95571 8.90506 8.87045 8.75618 8.79184 8.66489C8.71609 8.57693 8.61985 8.51119 8.48065 8.46057C8.15661 8.34274 7.70734 8.33404 7.00014 8.33404C6.29295 8.33404 5.84368 8.34274 5.51964 8.46057C5.38044 8.51119 5.28419 8.57693 5.20845 8.66489C5.12983 8.75618 5.04457 8.90506 4.98024 9.1624C4.89094 9.51959 4.52898 9.73677 4.17179 9.64747C3.81459 9.55817 3.59742 9.19621 3.68672 8.83902C3.78905 8.42969 3.95379 8.07856 4.19809 7.79486C4.44526 7.50782 4.74485 7.32356 5.06398 7.20751C5.22782 7.14793 5.40119 7.10549 5.57953 7.07527C5.22127 6.71385 4.99999 6.21643 4.99999 5.66733ZM14.8316 7.44357C15.0762 7.16839 15.0514 6.747 14.7762 6.50239C14.501 6.25778 14.0797 6.28257 13.8351 6.55776L12.5555 7.9972L12.1649 7.55776C11.9203 7.28257 11.4989 7.25778 11.2238 7.50239C10.9486 7.747 10.9238 8.16839 11.1684 8.44357L12.0573 9.44357C12.1838 9.5859 12.3651 9.66733 12.5555 9.66733C12.746 9.66733 12.9273 9.5859 13.0538 9.44357L14.8316 7.44357Z" fill="white"/>
</svg>
