<svg width="14" height="14" viewBox="0 0 14 14" fill="none" xmlns="http://www.w3.org/2000/svg">
<path d="M7 5.00065C7.39556 5.00065 7.78224 5.11795 8.11114 5.33771C8.44004 5.55747 8.69638 5.86983 8.84776 6.23528C8.99913 6.60074 9.03874 7.00287 8.96157 7.39083C8.8844 7.77879 8.69392 8.13516 8.41421 8.41487C8.13451 8.69457 7.77814 8.88505 7.39018 8.96222C7.00222 9.03939 6.60008 8.99979 6.23463 8.84841C5.86918 8.69704 5.55682 8.44069 5.33706 8.11179C5.1173 7.78289 5 7.39621 5 7.00065C5 6.47022 5.21071 5.96151 5.58579 5.58644C5.96086 5.21136 6.46957 5.00065 7 5.00065V5.00065ZM3 13.6673H11C11 12.6065 10.5786 11.589 9.82843 10.8389C9.07828 10.0887 8.06086 9.66732 7 9.66732C5.93913 9.66732 4.92172 10.0887 4.17157 10.8389C3.42143 11.589 3 12.6065 3 13.6673V13.6673ZM7.66667 3.00065V1.00065C7.66667 0.82384 7.59643 0.654271 7.4714 0.529246C7.34638 0.404222 7.17681 0.333984 7 0.333984C6.82319 0.333984 6.65362 0.404222 6.52859 0.529246C6.40357 0.654271 6.33333 0.82384 6.33333 1.00065V3.00065C6.33333 3.17746 6.40357 3.34703 6.52859 3.47206C6.65362 3.59708 6.82319 3.66732 7 3.66732C7.17681 3.66732 7.34638 3.59708 7.4714 3.47206C7.59643 3.34703 7.66667 3.17746 7.66667 3.00065ZM10.0667 4.93398C10.1944 4.93415 10.3194 4.89734 10.4267 4.82798L11.36 4.22798C11.4342 4.18089 11.4984 4.11958 11.5488 4.0476C11.5992 3.97561 11.6349 3.89436 11.6538 3.80853C11.6728 3.72269 11.6745 3.63396 11.659 3.54745C11.6435 3.46093 11.611 3.37834 11.5635 3.30442C11.5159 3.2305 11.4542 3.16671 11.3819 3.11673C11.3096 3.06674 11.2282 3.03155 11.1422 3.01317C11.0563 2.99479 10.9675 2.99358 10.8811 3.00963C10.7947 3.02567 10.7123 3.05864 10.6387 3.10665L9.70533 3.70665C9.58417 3.7846 9.49152 3.8997 9.44125 4.03471C9.39098 4.16973 9.38581 4.31739 9.42649 4.4556C9.46718 4.5938 9.55155 4.71511 9.66695 4.80135C9.78236 4.88759 9.9226 4.93412 10.0667 4.93398ZM4.296 3.70932L3.36267 3.10932C3.28929 3.05736 3.20615 3.02079 3.11827 3.00179C3.03039 2.9828 2.93958 2.98177 2.85129 2.99879C2.763 3.0158 2.67907 3.05049 2.60454 3.10078C2.53001 3.15107 2.46642 3.21592 2.4176 3.29142C2.36878 3.36692 2.33573 3.45152 2.32046 3.54013C2.30518 3.62873 2.30798 3.71951 2.32869 3.807C2.34941 3.89449 2.38761 3.97689 2.44099 4.04924C2.49437 4.12159 2.56184 4.18239 2.63933 4.22798L3.57267 4.82798C3.72086 4.91519 3.89703 4.94176 4.06435 4.90214C4.23168 4.86253 4.37722 4.75979 4.47059 4.6154C4.56396 4.471 4.59792 4.29612 4.56539 4.12727C4.53285 3.95843 4.43633 3.80868 4.296 3.70932ZM13 7.00065H11.3333C11.1565 7.00065 10.987 7.07089 10.8619 7.19591C10.7369 7.32094 10.6667 7.49051 10.6667 7.66732C10.6667 7.84413 10.7369 8.0137 10.8619 8.13872C10.987 8.26375 11.1565 8.33398 11.3333 8.33398H13C13.1768 8.33398 13.3464 8.26375 13.4714 8.13872C13.5964 8.0137 13.6667 7.84413 13.6667 7.66732C13.6667 7.49051 13.5964 7.32094 13.4714 7.19591C13.3464 7.07089 13.1768 7.00065 13 7.00065ZM0.333332 7.66732C0.333332 7.84413 0.40357 8.0137 0.528594 8.13872C0.653618 8.26375 0.823188 8.33398 0.999999 8.33398H2.66667C2.84348 8.33398 3.01305 8.26375 3.13807 8.13872C3.26309 8.0137 3.33333 7.84413 3.33333 7.66732C3.33333 7.49051 3.26309 7.32094 3.13807 7.19591C3.01305 7.07089 2.84348 7.00065 2.66667 7.00065H0.999999C0.823188 7.00065 0.653618 7.07089 0.528594 7.19591C0.40357 7.32094 0.333332 7.49051 0.333332 7.66732V7.66732Z" fill="white"/>
</svg>
