<svg width="14" height="12" viewBox="0 0 14 12" fill="none" xmlns="http://www.w3.org/2000/svg">
<path d="M4.33333 0.666016C4.72889 0.666016 5.11557 0.783314 5.44447 1.00308C5.77337 1.22284 6.02972 1.5352 6.18109 1.90065C6.33247 2.2661 6.37207 2.66823 6.2949 3.0562C6.21773 3.44416 6.02725 3.80052 5.74755 4.08023C5.46784 4.35993 5.11147 4.55042 4.72351 4.62759C4.33555 4.70476 3.93342 4.66515 3.56797 4.51377C3.20251 4.3624 2.89016 4.10605 2.67039 3.77716C2.45063 3.44826 2.33333 3.06158 2.33333 2.66602C2.33333 2.13558 2.54405 1.62687 2.91912 1.2518C3.29419 0.876729 3.8029 0.666016 4.33333 0.666016ZM0.999999 11.3327H7.66667C7.84348 11.3327 8.01305 11.2624 8.13807 11.1374C8.26309 11.0124 8.33333 10.8428 8.33333 10.666V9.33268C8.33333 8.80225 8.12262 8.29354 7.74755 7.91847C7.37247 7.5434 6.86377 7.33268 6.33333 7.33268H2.33333C1.8029 7.33268 1.29419 7.5434 0.919119 7.91847C0.544046 8.29354 0.333332 8.80225 0.333332 9.33268V10.666C0.333332 10.8428 0.40357 11.0124 0.528594 11.1374C0.653618 11.2624 0.823188 11.3327 0.999999 11.3327ZM13 0.666016H9.66667C9.48985 0.666016 9.32029 0.736254 9.19526 0.861278C9.07024 0.986302 9 1.15587 9 1.33268C9 1.50949 9.07024 1.67906 9.19526 1.80409C9.32029 1.92911 9.48985 1.99935 9.66667 1.99935H13C13.1768 1.99935 13.3464 1.92911 13.4714 1.80409C13.5964 1.67906 13.6667 1.50949 13.6667 1.33268C13.6667 1.15587 13.5964 0.986302 13.4714 0.861278C13.3464 0.736254 13.1768 0.666016 13 0.666016ZM13 3.33268H9.66667C9.48985 3.33268 9.32029 3.40292 9.19526 3.52794C9.07024 3.65297 9 3.82254 9 3.99935C9 4.17616 9.07024 4.34573 9.19526 4.47075C9.32029 4.59578 9.48985 4.66602 9.66667 4.66602H13C13.1768 4.66602 13.3464 4.59578 13.4714 4.47075C13.5964 4.34573 13.6667 4.17616 13.6667 3.99935C13.6667 3.82254 13.5964 3.65297 13.4714 3.52794C13.3464 3.40292 13.1768 3.33268 13 3.33268ZM13 5.99935H9.66667C9.48985 5.99935 9.32029 6.06959 9.19526 6.19461C9.07024 6.31963 9 6.4892 9 6.66602C9 6.84283 9.07024 7.0124 9.19526 7.13742C9.32029 7.26244 9.48985 7.33268 9.66667 7.33268H13C13.1768 7.33268 13.3464 7.26244 13.4714 7.13742C13.5964 7.0124 13.6667 6.84283 13.6667 6.66602C13.6667 6.4892 13.5964 6.31963 13.4714 6.19461C13.3464 6.06959 13.1768 5.99935 13 5.99935Z" fill="white"/>
</svg>
