<svg width="20" height="20" viewBox="0 0 20 20" fill="none" xmlns="http://www.w3.org/2000/svg">
<path d="M16.666 3.33301H3.33268C2.89065 3.33301 2.46673 3.5086 2.15417 3.82116C1.84161 4.13372 1.66602 4.55765 1.66602 4.99967V14.9997C1.66602 15.4417 1.84161 15.8656 2.15417 16.1782C2.46673 16.4907 2.89065 16.6663 3.33268 16.6663H16.666C17.108 16.6663 17.532 16.4907 17.8445 16.1782C18.1571 15.8656 18.3327 15.4417 18.3327 14.9997V4.99967C18.3327 4.55765 18.1571 4.13372 17.8445 3.82116C17.532 3.5086 17.108 3.33301 16.666 3.33301ZM5.83268 13.333C5.83268 13.554 5.74488 13.766 5.5886 13.9223C5.43232 14.0785 5.22036 14.1663 4.99935 14.1663C4.77834 14.1663 4.56637 14.0785 4.41009 13.9223C4.25381 13.766 4.16602 13.554 4.16602 13.333V6.66634C4.16602 6.44533 4.25381 6.23337 4.41009 6.07709C4.56637 5.9208 4.77834 5.83301 4.99935 5.83301C5.22036 5.83301 5.43232 5.9208 5.5886 6.07709C5.74488 6.23337 5.83268 6.44533 5.83268 6.66634V13.333ZM8.33268 13.333C8.33268 13.554 8.24488 13.766 8.0886 13.9223C7.93232 14.0785 7.72036 14.1663 7.49935 14.1663C7.27834 14.1663 7.06637 14.0785 6.91009 13.9223C6.75381 13.766 6.66602 13.554 6.66602 13.333V12.4997C6.66602 12.2787 6.75381 12.0667 6.91009 11.9104C7.06637 11.7541 7.27834 11.6663 7.49935 11.6663C7.72036 11.6663 7.93232 11.7541 8.0886 11.9104C8.24488 12.0667 8.33268 12.2787 8.33268 12.4997V13.333ZM8.33268 9.99967C8.33268 10.2207 8.24488 10.4326 8.0886 10.5889C7.93232 10.7452 7.72036 10.833 7.49935 10.833C7.27834 10.833 7.06637 10.7452 6.91009 10.5889C6.75381 10.4326 6.66602 10.2207 6.66602 9.99967V6.66634C6.66602 6.44533 6.75381 6.23337 6.91009 6.07709C7.06637 5.9208 7.27834 5.83301 7.49935 5.83301C7.72036 5.83301 7.93232 5.9208 8.0886 6.07709C8.24488 6.23337 8.33268 6.44533 8.33268 6.66634V9.99967ZM10.8327 13.333C10.8327 13.554 10.7449 13.766 10.5886 13.9223C10.4323 14.0785 10.2204 14.1663 9.99935 14.1663C9.77834 14.1663 9.56637 14.0785 9.41009 13.9223C9.25381 13.766 9.16602 13.554 9.16602 13.333V6.66634C9.16602 6.44533 9.25381 6.23337 9.41009 6.07709C9.56637 5.9208 9.77834 5.83301 9.99935 5.83301C10.2204 5.83301 10.4323 5.9208 10.5886 6.07709C10.7449 6.23337 10.8327 6.44533 10.8327 6.66634V13.333ZM13.3327 13.333C13.3327 13.554 13.2449 13.766 13.0886 13.9223C12.9323 14.0785 12.7204 14.1663 12.4993 14.1663C12.2783 14.1663 12.0664 14.0785 11.9101 13.9223C11.7538 13.766 11.666 13.554 11.666 13.333V12.4997C11.666 12.2787 11.7538 12.0667 11.9101 11.9104C12.0664 11.7541 12.2783 11.6663 12.4993 11.6663C12.7204 11.6663 12.9323 11.7541 13.0886 11.9104C13.2449 12.0667 13.3327 12.2787 13.3327 12.4997V13.333ZM13.3327 9.99967C13.3327 10.2207 13.2449 10.4326 13.0886 10.5889C12.9323 10.7452 12.7204 10.833 12.4993 10.833C12.2783 10.833 12.0664 10.7452 11.9101 10.5889C11.7538 10.4326 11.666 10.2207 11.666 9.99967V6.66634C11.666 6.44533 11.7538 6.23337 11.9101 6.07709C12.0664 5.9208 12.2783 5.83301 12.4993 5.83301C12.7204 5.83301 12.9323 5.9208 13.0886 6.07709C13.2449 6.23337 13.3327 6.44533 13.3327 6.66634V9.99967ZM15.8327 13.333C15.8327 13.554 15.7449 13.766 15.5886 13.9223C15.4323 14.0785 15.2204 14.1663 14.9993 14.1663C14.7783 14.1663 14.5664 14.0785 14.4101 13.9223C14.2538 13.766 14.166 13.554 14.166 13.333V6.66634C14.166 6.44533 14.2538 6.23337 14.4101 6.07709C14.5664 5.9208 14.7783 5.83301 14.9993 5.83301C15.2204 5.83301 15.4323 5.9208 15.5886 6.07709C15.7449 6.23337 15.8327 6.44533 15.8327 6.66634V13.333Z" fill="white"/>
</svg>
