<svg width="16" height="18" viewBox="0 0 16 18" fill="none" xmlns="http://www.w3.org/2000/svg">
<path d="M8 2.33317C6.15905 2.33317 4.66667 3.82555 4.66667 5.6665C4.66667 7.50745 6.15905 8.99984 8 8.99984C9.84095 8.99984 11.3333 7.50745 11.3333 5.6665C11.3333 3.82555 9.84095 2.33317 8 2.33317ZM3 5.6665C3 2.90508 5.23858 0.666504 8 0.666504C10.7614 0.666504 13 2.90508 13 5.6665C13 8.42793 10.7614 10.6665 8 10.6665C5.23858 10.6665 3 8.42793 3 5.6665ZM4.66667 13.9998C3.28595 13.9998 2.16667 15.1191 2.16667 16.4998C2.16667 16.9601 1.79357 17.3332 1.33333 17.3332C0.873096 17.3332 0.5 16.9601 0.5 16.4998C0.5 14.1986 2.36548 12.3332 4.66667 12.3332H11.3333C13.6345 12.3332 15.5 14.1987 15.5 16.4998C15.5 16.9601 15.1269 17.3332 14.6667 17.3332C14.2064 17.3332 13.8333 16.9601 13.8333 16.4998C13.8333 15.1191 12.714 13.9998 11.3333 13.9998H4.66667Z" fill="#0D0D0D"/>
</svg>
