<svg width="20" height="20" viewBox="0 0 20 20" fill="none" xmlns="http://www.w3.org/2000/svg">
<path d="M18.9551 11.557L14.8299 10.8694L13.6345 9.07617C13.3244 8.61148 12.806 8.33398 12.2477 8.33398H6.08563C5.52734 8.33398 5.00895 8.61148 4.69891 9.07617L3.49285 10.8857L0.947266 11.522C0.389805 11.6612 0 12.16 0 12.7346V14.8281C0 15.3193 0.19125 15.7811 0.53875 16.1286C0.881367 16.4708 1.355 16.6673 1.83922 16.6673H2.91668C2.93133 16.6673 2.94367 16.6605 2.95793 16.659C3.14836 17.6127 3.99078 18.334 5 18.334C6.00922 18.334 6.85164 17.6127 7.04207 16.659C7.05633 16.6605 7.06867 16.6673 7.08332 16.6673H12.5C12.5146 16.6673 12.527 16.6605 12.5413 16.659C12.7317 17.6127 13.5741 18.334 14.5833 18.334C15.5925 18.334 16.435 17.6127 16.6254 16.659C16.6396 16.6605 16.652 16.6673 16.6666 16.6673H18.4928C18.8102 16.6673 19.0959 16.4912 19.2382 16.2067L19.9121 14.8582C19.9267 14.8289 19.9381 14.798 19.9454 14.7663L19.9894 14.5799C19.9967 14.549 20 14.5173 20 14.4855V12.79C20 12.1759 19.5605 11.6575 18.9551 11.557ZM5 17.5006C4.3107 17.5006 3.75 16.9399 3.75 16.2506C3.75 15.5613 4.3107 15.0006 5 15.0006C5.6893 15.0006 6.25 15.5613 6.25 16.2506C6.25 16.9399 5.6893 17.5006 5 17.5006ZM13.0599 12.5006H5.41668C5.2702 12.5006 5.1343 12.4237 5.05941 12.298C4.98371 12.1722 4.98047 12.0164 5.04965 11.8874L5.94156 10.2207C6.01398 10.0852 6.15477 10.0006 6.30859 10.0006H12.0247C12.1688 10.0006 12.303 10.0751 12.3787 10.1976L13.4139 11.8643C13.4937 11.9929 13.4977 12.1544 13.4237 12.2866C13.3504 12.4188 13.2113 12.5006 13.0599 12.5006ZM14.5833 17.5006C13.894 17.5006 13.3333 16.9399 13.3333 16.2506C13.3333 15.5613 13.894 15.0006 14.5833 15.0006C15.2726 15.0006 15.8333 15.5613 15.8333 16.2506C15.8333 16.9399 15.2726 17.5006 14.5833 17.5006Z" fill="white"/>
<path d="M4.3516 4.93035L5.6016 5.76367C5.66996 5.80926 5.75055 5.83367 5.83273 5.83367H9.4575C9.92664 6.81637 10.9212 7.50035 12.0827 7.50035C13.6935 7.50035 14.9994 6.19449 14.9994 4.58367C14.9994 2.97285 13.6935 1.66699 12.0827 1.66699C10.9212 1.66699 9.92664 2.35098 9.45746 3.33367H5.8327C5.75051 3.33367 5.66992 3.35809 5.60156 3.40367L4.35156 4.23699C4.23602 4.3143 4.16602 4.44453 4.16602 4.58367C4.16602 4.72281 4.23602 4.85305 4.3516 4.93035ZM12.9161 3.75035C13.3759 3.75035 13.7494 4.1243 13.7494 4.58367C13.7494 5.04305 13.3758 5.41699 12.9161 5.41699C12.4562 5.41699 12.0827 5.04305 12.0827 4.58367C12.0827 4.1243 12.4562 3.75035 12.9161 3.75035Z" fill="white"/>
</svg>
