<svg width="20" height="20" viewBox="0 0 20 20" fill="none" xmlns="http://www.w3.org/2000/svg">
<path d="M4.18181 1.00008C2.97953 1.00008 2 1.89784 2 3.00007V16.9988C2.00021 17.0112 2.00117 17.0235 2.00289 17.0358C2.02489 18.1212 2.99466 19 4.18328 19H17.6349C17.8358 19 17.9993 18.8516 18 18.6673V16.9987V15.332V1.33203C17.9996 1.24362 17.9609 1.15896 17.8925 1.0967C17.824 1.03443 17.7314 0.999656 17.6349 1L4.18181 1.00008ZM9.98933 3.00069C10.038 2.99921 10.0864 3.00671 10.1318 3.02272C10.1773 3.03872 10.2187 3.06292 10.2537 3.09388C10.2888 3.12484 10.3167 3.16193 10.3358 3.20296C10.3549 3.24399 10.3649 3.28814 10.365 3.33276V7.00071H13.7798C13.8434 7.00096 13.9058 7.01647 13.9609 7.04577C14.0159 7.07506 14.0615 7.11711 14.0933 7.16764C14.1251 7.21818 14.1418 7.27548 14.1419 7.33381C14.142 7.39215 14.1254 7.44946 14.0937 7.50006L10.3146 13.504C10.2741 13.5668 10.2123 13.6158 10.1386 13.6433C10.0648 13.6708 9.98328 13.6754 9.90643 13.6563C9.82959 13.6373 9.76169 13.5956 9.71316 13.5378C9.66462 13.4799 9.63814 13.409 9.63777 13.336V9.66868H6.22087C6.15726 9.66843 6.09484 9.65287 6.03984 9.62358C5.98483 9.59429 5.93916 9.55227 5.90739 9.50174C5.87563 9.45121 5.85887 9.39394 5.85879 9.33561C5.85871 9.27728 5.87532 9.21993 5.90695 9.16933L9.68606 3.16543C9.71723 3.11665 9.76142 3.07595 9.81447 3.04713C9.86752 3.01831 9.92769 3.00232 9.98933 3.00069ZM4.18252 15.6667H17.272V16.2833H17.2727V18.3327H4.18254C3.37054 18.3327 2.72729 17.7435 2.72729 16.9988C2.72729 16.254 3.37054 15.6667 4.18254 15.6667H4.18252Z" fill="white"/>
</svg>
