<svg width="20" height="20" viewBox="0 0 20 20" fill="none" xmlns="http://www.w3.org/2000/svg">
<path d="M3.125 2.5C2.09125 2.5 1.25 3.34125 1.25 4.375V14.7917C1.25 16.285 2.465 17.5 3.95833 17.5H16.0417C17.535 17.5 18.75 16.285 18.75 14.7917V7.70833C18.75 6.74583 18.0183 5.95949 17.0833 5.85449V14.375C17.0833 14.72 16.8033 15 16.4583 15C16.1133 15 15.8333 14.72 15.8333 14.375V4.375C15.8333 3.34125 14.9921 2.5 13.9583 2.5H3.125ZM4.375 6.25H12.7083C13.0538 6.25 13.3333 6.53 13.3333 6.875C13.3333 7.22 13.0538 7.5 12.7083 7.5H4.375C4.02958 7.5 3.75 7.22 3.75 6.875C3.75 6.53 4.02958 6.25 4.375 6.25ZM4.375 9.58333H7.29167C7.63708 9.58333 7.91667 9.86333 7.91667 10.2083V13.125C7.91667 13.47 7.63708 13.75 7.29167 13.75H4.375C4.02958 13.75 3.75 13.47 3.75 13.125V10.2083C3.75 9.86333 4.02958 9.58333 4.375 9.58333ZM9.79167 9.58333H12.7083C13.0538 9.58333 13.3333 9.86333 13.3333 10.2083C13.3333 10.5533 13.0538 10.8333 12.7083 10.8333H9.79167C9.44625 10.8333 9.16667 10.5533 9.16667 10.2083C9.16667 9.86333 9.44625 9.58333 9.79167 9.58333ZM5 10.8333V12.5H6.66667V10.8333H5ZM9.79167 12.5H12.7083C13.0538 12.5 13.3333 12.78 13.3333 13.125C13.3333 13.47 13.0538 13.75 12.7083 13.75H9.79167C9.44625 13.75 9.16667 13.47 9.16667 13.125C9.16667 12.78 9.44625 12.5 9.79167 12.5Z" fill="white"/>
</svg>
