<svg width="36" height="36" viewBox="0 0 36 36" fill="none" xmlns="http://www.w3.org/2000/svg">
<rect width="36" height="36" rx="18" transform="matrix(-1 0 0 1 36 0)" fill="#EBEBEB"/>
<path d="M15.5 9.6665C15.9602 9.6665 16.3333 10.0396 16.3333 10.4998V11.3332H19.6667V10.4998C19.6667 10.0396 20.0398 9.6665 20.5 9.6665C20.9602 9.6665 21.3333 10.0396 21.3333 10.4998V11.3332H23.8333C24.7538 11.3332 25.5 12.0794 25.5 12.9998V23.8332C25.5 24.7536 24.7538 25.4998 23.8333 25.4998H12.1667C11.2462 25.4998 10.5 24.7536 10.5 23.8332V12.9998C10.5 12.0794 11.2462 11.3332 12.1667 11.3332H14.6667V10.4998C14.6667 10.0396 15.0398 9.6665 15.5 9.6665ZM14.6667 12.9998H12.1667V15.4998H23.8333V12.9998H21.3333V13.8332C21.3333 14.2934 20.9602 14.6665 20.5 14.6665C20.0398 14.6665 19.6667 14.2934 19.6667 13.8332V12.9998H16.3333V13.8332C16.3333 14.2934 15.9602 14.6665 15.5 14.6665C15.0398 14.6665 14.6667 14.2934 14.6667 13.8332V12.9998ZM23.8333 17.1665H12.1667V23.8332H23.8333V17.1665Z" fill="#161616"/>
</svg>
