<svg width="18" height="18" viewBox="0 0 18 18" fill="none" xmlns="http://www.w3.org/2000/svg">
<path d="M7.33317 2.33317C5.49222 2.33317 3.99984 3.82555 3.99984 5.6665C3.99984 7.50745 5.49222 8.99984 7.33317 8.99984C9.17412 8.99984 10.6665 7.50745 10.6665 5.6665C10.6665 3.82555 9.17412 2.33317 7.33317 2.33317ZM2.33317 5.6665C2.33317 2.90508 4.57175 0.666504 7.33317 0.666504C10.0946 0.666504 12.3332 2.90508 12.3332 5.6665C12.3332 8.42793 10.0946 10.6665 7.33317 10.6665C4.57175 10.6665 2.33317 8.42793 2.33317 5.6665ZM13.0235 2.13097C13.349 1.80553 13.8766 1.80553 14.202 2.13097C16.1547 4.08359 16.1547 7.24942 14.202 9.20204C13.8766 9.52748 13.349 9.52748 13.0235 9.20204C12.6981 8.8766 12.6981 8.34896 13.0235 8.02353C14.3253 6.72178 14.3253 4.61123 13.0235 3.30948C12.6981 2.98404 12.6981 2.45641 13.0235 2.13097ZM13.6081 12.9644C13.7197 12.5179 14.1721 12.2464 14.6186 12.3581C15.7252 12.6347 16.4257 13.3423 16.8285 14.148C17.2183 14.9276 17.3332 15.7974 17.3332 16.4998C17.3332 16.9601 16.9601 17.3332 16.4998 17.3332C16.0396 17.3332 15.6665 16.9601 15.6665 16.4998C15.6665 15.9522 15.573 15.3637 15.3378 14.8933C15.1157 14.4491 14.7745 14.115 14.2144 13.975C13.7679 13.8633 13.4964 13.4109 13.6081 12.9644ZM4.4165 13.9998C3.36696 13.9998 2.33317 15.0111 2.33317 16.4998C2.33317 16.9601 1.96007 17.3332 1.49984 17.3332C1.0396 17.3332 0.666504 16.9601 0.666504 16.4998C0.666504 14.3067 2.24439 12.3332 4.4165 12.3332H10.2498C12.422 12.3332 13.9998 14.3067 13.9998 16.4998C13.9998 16.9601 13.6267 17.3332 13.1665 17.3332C12.7063 17.3332 12.3332 16.9601 12.3332 16.4998C12.3332 15.0111 11.2994 13.9998 10.2498 13.9998H4.4165Z" fill="#0D0D0D"/>
</svg>
