<svg width="14" height="14" viewBox="0 0 14 14" fill="none" xmlns="http://www.w3.org/2000/svg">
<path d="M7.00017 0.333496C7.25268 0.333496 7.48352 0.476164 7.59645 0.70202L13.5965 12.702C13.7115 12.9321 13.6839 13.2077 13.5256 13.4104C13.3674 13.6132 13.1066 13.7067 12.8555 13.651L7.00017 12.3498L1.14479 13.651C0.89373 13.7067 0.63297 13.6132 0.474697 13.4104C0.316425 13.2077 0.288868 12.9321 0.403883 12.702L6.40388 0.70202C6.51681 0.476164 6.74765 0.333496 7.00017 0.333496ZM7.66683 11.132L11.7775 12.0455L7.66683 3.82421V11.132ZM6.3335 3.82421L2.22284 12.0455L6.3335 11.132V3.82421Z" fill="#0D0D0D"/>
</svg>
