<svg width="20" height="16" viewBox="0 0 20 16" fill="none" xmlns="http://www.w3.org/2000/svg">
<path d="M4.29289 0.292893C4.68342 -0.0976311 5.31658 -0.0976311 5.70711 0.292893L9.70711 4.29289C10.0976 4.68342 10.0976 5.31658 9.70711 5.70711C9.31658 6.09763 8.68342 6.09763 8.29289 5.70711L6 3.41421V15C6 15.5523 5.55228 16 5 16C4.44772 16 4 15.5523 4 15V3.41421L1.70711 5.70711C1.31658 6.09763 0.683417 6.09763 0.292893 5.70711C-0.0976311 5.31658 -0.0976311 4.68342 0.292893 4.29289L4.29289 0.292893ZM14 12.5858V1C14 0.447715 14.4477 2.98023e-08 15 2.98023e-08C15.5523 2.98023e-08 16 0.447715 16 1V12.5858L18.2929 10.2929C18.6834 9.90237 19.3166 9.90237 19.7071 10.2929C20.0976 10.6834 20.0976 11.3166 19.7071 11.7071L15.7071 15.7071C15.5196 15.8946 15.2652 16 15 16C14.7348 16 14.4804 15.8946 14.2929 15.7071L10.2929 11.7071C9.90237 11.3166 9.90237 10.6834 10.2929 10.2929C10.6834 9.90237 11.3166 9.90237 11.7071 10.2929L14 12.5858Z" fill="#F8F8F8"/>
</svg>
