<svg width="20" height="20" viewBox="0 0 20 20" fill="none" xmlns="http://www.w3.org/2000/svg">
<path d="M14.2644 16.794C14.23 16.7596 14.1792 16.7497 14.134 16.7674C12.6555 17.347 10.8977 17.126 9.54578 16.005C8.90629 15.4748 8.43512 14.7531 8.19586 13.9577C7.27447 10.8941 9.56088 8.07903 12.4883 8.07903C13.338 8.07903 14.1333 8.31694 14.8097 8.72413C14.8934 8.77454 14.9979 8.71827 14.9979 8.62057V2.99984C14.9979 2.44994 14.548 2 13.9981 2L5.25448 2.005C5.11448 2.005 5.00452 2.11998 5.00452 2.25496V4.77955C5.00452 4.91759 4.8926 5.02951 4.75456 5.02951H2.24996C2.11 5.02951 2 5.14451 2 5.27947V16.9976C2 17.5475 2.44994 17.9974 2.99984 17.9974H13.9981C14.3587 17.9974 14.6778 17.8014 14.8522 17.5122C14.8815 17.4637 14.87 17.3996 14.8299 17.3595L14.2644 16.794Z" fill="white"/>
<path d="M3.7933 2.2257L2.21225 3.82029C2.13405 3.89917 2.18992 4.03327 2.30102 4.03327H3.88206C3.95108 4.03327 4.00704 3.97731 4.00704 3.90829V2.3137C4.00704 2.20212 3.87187 2.14646 3.7933 2.2257Z" fill="white"/>
<path d="M15.4409 14.439C15.7701 13.9209 15.9891 13.3296 15.9891 12.5785C15.9891 10.6468 14.4214 9.0791 12.4897 9.0791C10.565 9.0791 8.99023 10.6468 8.99023 12.5785C8.99023 14.5032 10.565 16.078 12.4897 16.078C13.141 16.078 13.7799 15.9116 14.3892 15.507L16.6623 17.7802C16.9659 18.0838 17.4478 18.064 17.7222 17.7802C18.0171 17.4902 18.0171 17.0153 17.7222 16.7203C17.5489 16.5471 15.3641 14.3622 15.4409 14.439ZM13.1429 14.4649C11.8689 14.9171 10.49 13.9723 10.49 12.5785C10.49 11.4787 11.3832 10.5789 12.4897 10.5789C13.5895 10.5789 14.4893 11.4787 14.4893 12.5785C14.4893 13.4127 13.9592 14.1874 13.1429 14.4649Z" fill="white"/>
</svg>
