<svg width="18" height="16" viewBox="0 0 18 16" fill="none" xmlns="http://www.w3.org/2000/svg">
<path d="M0.666992 1.99967C0.666992 1.0792 1.41318 0.333008 2.33366 0.333008H15.667C16.5875 0.333008 17.3337 1.0792 17.3337 1.99967V11.1663C17.3337 12.0868 16.5875 12.833 15.667 12.833H11.8455L9.58958 15.0889C9.26414 15.4144 8.73651 15.4144 8.41107 15.0889L6.15515 12.833H2.33366C1.41318 12.833 0.666992 12.0868 0.666992 11.1663V1.99967ZM15.667 1.99967H2.33366V11.1663H6.50033C6.72134 11.1663 6.9333 11.2541 7.08958 11.4104L9.00033 13.3212L10.9111 11.4104C11.0674 11.2541 11.2793 11.1663 11.5003 11.1663H15.667V1.99967Z" fill="#0D0D0D"/>
<path d="M10.2503 6.58301C10.2503 7.27336 9.69068 7.83301 9.00033 7.83301C8.30997 7.83301 7.75033 7.27336 7.75033 6.58301C7.75033 5.89265 8.30997 5.33301 9.00033 5.33301C9.69068 5.33301 10.2503 5.89265 10.2503 6.58301Z" fill="#0D0D0D"/>
<path d="M13.5837 6.58301C13.5837 7.27336 13.024 7.83301 12.3337 7.83301C11.6433 7.83301 11.0837 7.27336 11.0837 6.58301C11.0837 5.89265 11.6433 5.33301 12.3337 5.33301C13.024 5.33301 13.5837 5.89265 13.5837 6.58301Z" fill="#0D0D0D"/>
<path d="M6.91699 6.58301C6.91699 7.27336 6.35735 7.83301 5.66699 7.83301C4.97664 7.83301 4.41699 7.27336 4.41699 6.58301C4.41699 5.89265 4.97664 5.33301 5.66699 5.33301C6.35735 5.33301 6.91699 5.89265 6.91699 6.58301Z" fill="#0D0D0D"/>
</svg>
