<svg width="36" height="36" viewBox="0 0 36 36" fill="none" xmlns="http://www.w3.org/2000/svg">
<rect width="36" height="36" rx="18" transform="matrix(-1 0 0 1 36 0)" fill="#EBEBEB"/>
<path d="M25.34 17.2325C24.5241 21.4433 18 25.0833 18 25.0833C18 25.0833 11.4758 21.4433 10.66 17.2325C9.85581 13.0833 12.2216 10.9167 14.6666 10.9167C15.32 10.8751 15.9727 11.0074 16.5582 11.3002C17.1438 11.5929 17.6413 12.0357 18 12.5833C18.3587 12.0357 18.8562 11.5929 19.4417 11.3002C20.0273 11.0074 20.68 10.8751 21.3333 10.9167C23.7783 10.9167 26.1441 13.0833 25.34 17.2325Z" fill="#161616"/>
</svg>
