<svg width="20" height="20" viewBox="0 0 20 20" fill="none" xmlns="http://www.w3.org/2000/svg">
<path d="M5.53567 10.8932L14.5115 1.91652C14.672 1.75612 14.8896 1.66602 15.1165 1.66602C15.3434 1.66602 15.561 1.75612 15.7215 1.91652L17.2498 3.44485C17.4102 3.60534 17.5003 3.82295 17.5003 4.04985C17.5003 4.27675 17.4102 4.49436 17.2498 4.65485L8.27317 13.6307L4.1665 14.9999L5.53567 10.8932ZM17.4998 16.6665H2.49984C2.27882 16.6665 2.06686 16.7543 1.91058 16.9106C1.7543 17.0669 1.6665 17.2788 1.6665 17.4999C1.6665 17.7209 1.7543 17.9328 1.91058 18.0891C2.06686 18.2454 2.27882 18.3332 2.49984 18.3332H17.4998C17.7209 18.3332 17.9328 18.2454 18.0891 18.0891C18.2454 17.9328 18.3332 17.7209 18.3332 17.4999C18.3332 17.2788 18.2454 17.0669 18.0891 16.9106C17.9328 16.7543 17.7209 16.6665 17.4998 16.6665Z" fill="black"/>
</svg>
