<svg width="17" height="16" viewBox="0 0 17 16" fill="none" xmlns="http://www.w3.org/2000/svg">
<path d="M5.84395 8.18035C5.45667 7.68912 5.22126 7.09549 5.16661 6.47235C5.16201 6.21522 5.21103 5.95994 5.31054 5.7228C5.41006 5.48566 5.55789 5.27186 5.74461 5.09502C5.79984 5.03204 5.8675 4.98117 5.94334 4.94561C6.01918 4.91004 6.10155 4.89055 6.18528 4.88835C6.29528 4.88835 6.40528 4.88835 6.50195 4.89435C6.59861 4.90035 6.73928 4.85568 6.87328 5.17768C7.00728 5.49968 7.33995 6.32102 7.38262 6.40368C7.40879 6.44685 7.42372 6.49589 7.42605 6.54632C7.42838 6.59675 7.41803 6.64695 7.39595 6.69235C7.3545 6.79173 7.29905 6.88467 7.23128 6.96835C7.14861 7.06435 7.05728 7.18368 6.98328 7.25702C6.90928 7.33035 6.81461 7.42902 6.91061 7.59435C7.15998 8.01896 7.47092 8.40426 7.83328 8.73768C8.22509 9.08574 8.67445 9.36298 9.16128 9.55702C9.32661 9.63968 9.42328 9.62368 9.51928 9.51568C9.61528 9.40768 9.93195 9.03368 10.0419 8.86835C10.1519 8.70302 10.2626 8.73102 10.4139 8.78568C10.5653 8.84035 11.3773 9.24035 11.5419 9.32302C11.7066 9.40568 11.8173 9.44702 11.8586 9.51568C11.9039 9.78122 11.8705 10.0542 11.7626 10.301C11.6409 10.5016 11.4791 10.6748 11.2873 10.8098C11.0954 10.9448 10.8778 11.0388 10.6479 11.0857C10.3006 11.1449 9.94423 11.1221 9.60728 11.019C9.28762 10.9199 8.9734 10.8039 8.66595 10.6717C7.52528 10.0998 6.55282 9.24132 5.84395 8.18035ZM1.86328 14.6663L2.80061 11.2424C2.0743 9.98197 1.78409 8.51718 1.97497 7.07508C2.16585 5.63299 2.82716 4.29414 3.85637 3.26613C4.88558 2.23812 6.22519 1.57836 7.66751 1.38916C9.10983 1.19996 10.5743 1.49187 11.8338 2.21965C13.0933 2.94743 14.0776 4.0704 14.634 5.41448C15.1903 6.75855 15.2877 8.24863 14.9111 9.6537C14.5344 11.0588 13.7047 12.3003 12.5507 13.1859C11.3966 14.0714 9.98262 14.5515 8.52795 14.5517C7.42356 14.5519 6.33671 14.2755 5.36661 13.7477L1.86328 14.6663ZM3.03328 7.93968C3.03164 8.97359 3.32263 9.98686 3.87261 10.8624L4.00595 11.0704L3.45128 13.097L5.53061 12.5517L5.73061 12.6704C6.57706 13.1717 7.54283 13.4361 8.52661 13.4357C9.61298 13.4357 10.675 13.1136 11.5783 12.5101C12.4816 11.9066 13.1857 11.0488 13.6015 10.0452C14.0174 9.04155 14.1263 7.93716 13.9146 6.87163C13.7028 5.80611 13.1799 4.82728 12.4119 4.05892C11.6439 3.29056 10.6654 2.76716 9.59994 2.5549C8.53452 2.34263 7.43008 2.45104 6.42625 2.86641C5.42243 3.28178 4.56431 3.98546 3.96037 4.88848C3.35644 5.7915 3.03381 6.85332 3.03328 7.93968Z" fill="#161616"/>
</svg>
